<?xml version="1.0" encoding="utf-8" standalone="no"?>
<!DOCTYPE svg PUBLIC "-//W3C//DTD SVG 1.1//EN"
  "http://www.w3.org/Graphics/SVG/1.1/DTD/svg11.dtd">
<!-- Created with matplotlib (https://matplotlib.org/) -->
<svg height="263.63625pt" version="1.1" viewBox="0 0 359.752344 263.63625" width="359.752344pt" xmlns="http://www.w3.org/2000/svg" xmlns:xlink="http://www.w3.org/1999/xlink">
 <metadata>
  <rdf:RDF xmlns:cc="http://creativecommons.org/ns#" xmlns:dc="http://purl.org/dc/elements/1.1/" xmlns:rdf="http://www.w3.org/1999/02/22-rdf-syntax-ns#">
   <cc:Work>
    <dc:type rdf:resource="http://purl.org/dc/dcmitype/StillImage"/>
    <dc:date>2021-10-22T10:28:25.432168</dc:date>
    <dc:format>image/svg+xml</dc:format>
    <dc:creator>
     <cc:Agent>
      <dc:title>Matplotlib v3.3.4, https://matplotlib.org/</dc:title>
     </cc:Agent>
    </dc:creator>
   </cc:Work>
  </rdf:RDF>
 </metadata>
 <defs>
  <style type="text/css">*{stroke-linecap:butt;stroke-linejoin:round;}</style>
 </defs>
 <g id="figure_1">
  <g id="patch_1">
   <path d="M 0 263.63625 
L 359.752344 263.63625 
L 359.752344 0 
L 0 0 
z
" style="fill:none;"/>
  </g>
  <g id="axes_1">
   <g id="patch_2">
    <path d="M 14.571094 239.758125 
L 349.371094 239.758125 
L 349.371094 22.318125 
L 14.571094 22.318125 
z
" style="fill:#ffffff;"/>
   </g>
   <g id="matplotlib.axis_1">
    <g id="xtick_1">
     <g id="line2d_1">
      <defs>
       <path d="M 0 0 
L 0 3.5 
" id="me18080779a" style="stroke:#000000;stroke-width:0.8;"/>
      </defs>
      <g>
       <use style="stroke:#000000;stroke-width:0.8;" x="14.571094" xlink:href="#me18080779a" y="239.758125"/>
      </g>
     </g>
     <g id="text_1">
      <!-- −4 -->
      <g transform="translate(7.2 254.356563)scale(0.1 -0.1)">
       <defs>
        <path d="M 10.59375 35.5 
L 73.1875 35.5 
L 73.1875 27.203125 
L 10.59375 27.203125 
z
" id="DejaVuSans-8722"/>
        <path d="M 37.796875 64.3125 
L 12.890625 25.390625 
L 37.796875 25.390625 
z
M 35.203125 72.90625 
L 47.609375 72.90625 
L 47.609375 25.390625 
L 58.015625 25.390625 
L 58.015625 17.1875 
L 47.609375 17.1875 
L 47.609375 0 
L 37.796875 0 
L 37.796875 17.1875 
L 4.890625 17.1875 
L 4.890625 26.703125 
z
" id="DejaVuSans-52"/>
       </defs>
       <use xlink:href="#DejaVuSans-8722"/>
       <use x="83.789062" xlink:href="#DejaVuSans-52"/>
      </g>
     </g>
    </g>
    <g id="xtick_2">
     <g id="line2d_2">
      <g>
       <use style="stroke:#000000;stroke-width:0.8;" x="81.531094" xlink:href="#me18080779a" y="239.758125"/>
      </g>
     </g>
     <g id="text_2">
      <!-- −3 -->
      <g transform="translate(74.16 254.356563)scale(0.1 -0.1)">
       <defs>
        <path d="M 40.578125 39.3125 
Q 47.65625 37.796875 51.625 33 
Q 55.609375 28.21875 55.609375 21.1875 
Q 55.609375 10.40625 48.1875 4.484375 
Q 40.765625 -1.421875 27.09375 -1.421875 
Q 22.515625 -1.421875 17.65625 -0.515625 
Q 12.796875 0.390625 7.625 2.203125 
L 7.625 11.71875 
Q 11.71875 9.328125 16.59375 8.109375 
Q 21.484375 6.890625 26.8125 6.890625 
Q 36.078125 6.890625 40.9375 10.546875 
Q 45.796875 14.203125 45.796875 21.1875 
Q 45.796875 27.640625 41.28125 31.265625 
Q 36.765625 34.90625 28.71875 34.90625 
L 20.21875 34.90625 
L 20.21875 43.015625 
L 29.109375 43.015625 
Q 36.375 43.015625 40.234375 45.921875 
Q 44.09375 48.828125 44.09375 54.296875 
Q 44.09375 59.90625 40.109375 62.90625 
Q 36.140625 65.921875 28.71875 65.921875 
Q 24.65625 65.921875 20.015625 65.03125 
Q 15.375 64.15625 9.8125 62.3125 
L 9.8125 71.09375 
Q 15.4375 72.65625 20.34375 73.4375 
Q 25.25 74.21875 29.59375 74.21875 
Q 40.828125 74.21875 47.359375 69.109375 
Q 53.90625 64.015625 53.90625 55.328125 
Q 53.90625 49.265625 50.4375 45.09375 
Q 46.96875 40.921875 40.578125 39.3125 
z
" id="DejaVuSans-51"/>
       </defs>
       <use xlink:href="#DejaVuSans-8722"/>
       <use x="83.789062" xlink:href="#DejaVuSans-51"/>
      </g>
     </g>
    </g>
    <g id="xtick_3">
     <g id="line2d_3">
      <g>
       <use style="stroke:#000000;stroke-width:0.8;" x="148.491094" xlink:href="#me18080779a" y="239.758125"/>
      </g>
     </g>
     <g id="text_3">
      <!-- −2 -->
      <g transform="translate(141.12 254.356563)scale(0.1 -0.1)">
       <defs>
        <path d="M 19.1875 8.296875 
L 53.609375 8.296875 
L 53.609375 0 
L 7.328125 0 
L 7.328125 8.296875 
Q 12.9375 14.109375 22.625 23.890625 
Q 32.328125 33.6875 34.8125 36.53125 
Q 39.546875 41.84375 41.421875 45.53125 
Q 43.3125 49.21875 43.3125 52.78125 
Q 43.3125 58.59375 39.234375 62.25 
Q 35.15625 65.921875 28.609375 65.921875 
Q 23.96875 65.921875 18.8125 64.3125 
Q 13.671875 62.703125 7.8125 59.421875 
L 7.8125 69.390625 
Q 13.765625 71.78125 18.9375 73 
Q 24.125 74.21875 28.421875 74.21875 
Q 39.75 74.21875 46.484375 68.546875 
Q 53.21875 62.890625 53.21875 53.421875 
Q 53.21875 48.921875 51.53125 44.890625 
Q 49.859375 40.875 45.40625 35.40625 
Q 44.1875 33.984375 37.640625 27.21875 
Q 31.109375 20.453125 19.1875 8.296875 
z
" id="DejaVuSans-50"/>
       </defs>
       <use xlink:href="#DejaVuSans-8722"/>
       <use x="83.789062" xlink:href="#DejaVuSans-50"/>
      </g>
     </g>
    </g>
    <g id="xtick_4">
     <g id="line2d_4">
      <g>
       <use style="stroke:#000000;stroke-width:0.8;" x="215.451094" xlink:href="#me18080779a" y="239.758125"/>
      </g>
     </g>
     <g id="text_4">
      <!-- −1 -->
      <g transform="translate(208.08 254.356563)scale(0.1 -0.1)">
       <defs>
        <path d="M 12.40625 8.296875 
L 28.515625 8.296875 
L 28.515625 63.921875 
L 10.984375 60.40625 
L 10.984375 69.390625 
L 28.421875 72.90625 
L 38.28125 72.90625 
L 38.28125 8.296875 
L 54.390625 8.296875 
L 54.390625 0 
L 12.40625 0 
z
" id="DejaVuSans-49"/>
       </defs>
       <use xlink:href="#DejaVuSans-8722"/>
       <use x="83.789062" xlink:href="#DejaVuSans-49"/>
      </g>
     </g>
    </g>
    <g id="xtick_5">
     <g id="line2d_5">
      <g>
       <use style="stroke:#000000;stroke-width:0.8;" x="282.411094" xlink:href="#me18080779a" y="239.758125"/>
      </g>
     </g>
     <g id="text_5">
      <!-- 0 -->
      <g transform="translate(279.229844 254.356563)scale(0.1 -0.1)">
       <defs>
        <path d="M 31.78125 66.40625 
Q 24.171875 66.40625 20.328125 58.90625 
Q 16.5 51.421875 16.5 36.375 
Q 16.5 21.390625 20.328125 13.890625 
Q 24.171875 6.390625 31.78125 6.390625 
Q 39.453125 6.390625 43.28125 13.890625 
Q 47.125 21.390625 47.125 36.375 
Q 47.125 51.421875 43.28125 58.90625 
Q 39.453125 66.40625 31.78125 66.40625 
z
M 31.78125 74.21875 
Q 44.046875 74.21875 50.515625 64.515625 
Q 56.984375 54.828125 56.984375 36.375 
Q 56.984375 17.96875 50.515625 8.265625 
Q 44.046875 -1.421875 31.78125 -1.421875 
Q 19.53125 -1.421875 13.0625 8.265625 
Q 6.59375 17.96875 6.59375 36.375 
Q 6.59375 54.828125 13.0625 64.515625 
Q 19.53125 74.21875 31.78125 74.21875 
z
" id="DejaVuSans-48"/>
       </defs>
       <use xlink:href="#DejaVuSans-48"/>
      </g>
     </g>
    </g>
    <g id="xtick_6">
     <g id="line2d_6">
      <g>
       <use style="stroke:#000000;stroke-width:0.8;" x="349.371094" xlink:href="#me18080779a" y="239.758125"/>
      </g>
     </g>
     <g id="text_6">
      <!-- 1 -->
      <g transform="translate(346.189844 254.356563)scale(0.1 -0.1)">
       <use xlink:href="#DejaVuSans-49"/>
      </g>
     </g>
    </g>
   </g>
   <g id="matplotlib.axis_2">
    <g id="ytick_1">
     <g id="line2d_7">
      <defs>
       <path d="M 0 0 
L -3.5 0 
" id="m570a1870a8" style="stroke:#000000;stroke-width:0.8;"/>
      </defs>
      <g>
       <use style="stroke:#000000;stroke-width:0.8;" x="282.411094" xlink:href="#m570a1870a8" y="185.398125"/>
      </g>
     </g>
     <g id="text_7">
      <!-- 0.5 -->
      <g transform="translate(259.507969 189.197344)scale(0.1 -0.1)">
       <defs>
        <path d="M 10.6875 12.40625 
L 21 12.40625 
L 21 0 
L 10.6875 0 
z
" id="DejaVuSans-46"/>
        <path d="M 10.796875 72.90625 
L 49.515625 72.90625 
L 49.515625 64.59375 
L 19.828125 64.59375 
L 19.828125 46.734375 
Q 21.96875 47.46875 24.109375 47.828125 
Q 26.265625 48.1875 28.421875 48.1875 
Q 40.625 48.1875 47.75 41.5 
Q 54.890625 34.8125 54.890625 23.390625 
Q 54.890625 11.625 47.5625 5.09375 
Q 40.234375 -1.421875 26.90625 -1.421875 
Q 22.3125 -1.421875 17.546875 -0.640625 
Q 12.796875 0.140625 7.71875 1.703125 
L 7.71875 11.625 
Q 12.109375 9.234375 16.796875 8.0625 
Q 21.484375 6.890625 26.703125 6.890625 
Q 35.15625 6.890625 40.078125 11.328125 
Q 45.015625 15.765625 45.015625 23.390625 
Q 45.015625 31 40.078125 35.4375 
Q 35.15625 39.890625 26.703125 39.890625 
Q 22.75 39.890625 18.8125 39.015625 
Q 14.890625 38.140625 10.796875 36.28125 
z
" id="DejaVuSans-53"/>
       </defs>
       <use xlink:href="#DejaVuSans-48"/>
       <use x="63.623047" xlink:href="#DejaVuSans-46"/>
       <use x="95.410156" xlink:href="#DejaVuSans-53"/>
      </g>
     </g>
    </g>
    <g id="ytick_2">
     <g id="line2d_8">
      <g>
       <use style="stroke:#000000;stroke-width:0.8;" x="282.411094" xlink:href="#m570a1870a8" y="131.038125"/>
      </g>
     </g>
     <g id="text_8">
      <!-- 1.0 -->
      <g transform="translate(259.507969 134.837344)scale(0.1 -0.1)">
       <use xlink:href="#DejaVuSans-49"/>
       <use x="63.623047" xlink:href="#DejaVuSans-46"/>
       <use x="95.410156" xlink:href="#DejaVuSans-48"/>
      </g>
     </g>
    </g>
    <g id="ytick_3">
     <g id="line2d_9">
      <g>
       <use style="stroke:#000000;stroke-width:0.8;" x="282.411094" xlink:href="#m570a1870a8" y="76.678125"/>
      </g>
     </g>
     <g id="text_9">
      <!-- 1.5 -->
      <g transform="translate(259.507969 80.477344)scale(0.1 -0.1)">
       <use xlink:href="#DejaVuSans-49"/>
       <use x="63.623047" xlink:href="#DejaVuSans-46"/>
       <use x="95.410156" xlink:href="#DejaVuSans-53"/>
      </g>
     </g>
    </g>
    <g id="ytick_4">
     <g id="line2d_10">
      <g>
       <use style="stroke:#000000;stroke-width:0.8;" x="282.411094" xlink:href="#m570a1870a8" y="22.318125"/>
      </g>
     </g>
     <g id="text_10">
      <!-- 2.0 -->
      <g transform="translate(259.507969 26.117344)scale(0.1 -0.1)">
       <use xlink:href="#DejaVuSans-50"/>
       <use x="63.623047" xlink:href="#DejaVuSans-46"/>
       <use x="95.410156" xlink:href="#DejaVuSans-48"/>
      </g>
     </g>
    </g>
   </g>
   <g id="line2d_11">
    <path clip-path="url(#p5fa9f909a3)" d="M 14.571094 239.758125 
L 17.952912 239.758125 
L 21.33473 239.758125 
L 24.716548 239.758125 
L 28.098366 239.758125 
L 31.480185 239.758125 
L 34.862003 239.758125 
L 38.243821 239.758125 
L 41.625639 239.758125 
L 45.007457 239.758125 
L 48.389276 239.758125 
L 51.771094 239.758125 
L 55.152912 239.758125 
L 58.53473 239.758125 
L 61.916548 239.758125 
L 65.298366 239.758125 
L 68.680185 239.758125 
L 72.062003 239.758125 
L 75.443821 239.758125 
L 78.825639 239.758125 
L 82.207457 239.758125 
L 85.589276 239.758125 
L 88.971094 239.758125 
L 92.352912 239.758125 
L 95.73473 239.758125 
L 99.116548 239.758125 
L 102.498366 239.758125 
L 105.880185 239.758125 
L 109.262003 239.758125 
L 112.643821 239.758125 
L 116.025639 239.758125 
L 119.407457 239.758125 
L 122.789276 239.758125 
L 126.171094 239.758125 
L 129.552912 239.758125 
L 132.93473 239.758125 
L 136.316548 239.758125 
L 139.698366 239.758125 
L 143.080185 239.758125 
L 146.462003 239.758125 
L 149.843821 239.758125 
L 153.225639 239.758125 
L 156.607457 239.758125 
L 159.989276 239.758125 
L 163.371094 239.758125 
L 166.752912 239.758125 
L 170.13473 239.758125 
L 173.516548 239.758125 
L 176.898366 239.758125 
L 180.280185 239.758125 
L 183.662003 239.758125 
L 187.043821 239.758125 
L 190.425639 239.758125 
L 193.807457 239.758125 
L 197.189276 239.758125 
L 200.571094 239.758125 
L 203.952912 239.758125 
L 207.33473 239.758125 
L 210.716548 239.758125 
L 214.098366 239.758125 
L 217.480185 236.46358 
L 220.862003 230.97267 
L 224.243821 225.481761 
L 227.625639 219.990852 
L 231.007457 214.499943 
L 234.389276 209.009034 
L 237.771094 203.518125 
L 241.152912 198.027216 
L 244.53473 192.536307 
L 247.916548 187.045398 
L 251.298366 181.554489 
L 254.680185 176.06358 
L 258.062003 170.57267 
L 261.443821 165.081761 
L 264.825639 159.590852 
L 268.207457 154.099943 
L 271.589276 148.609034 
L 274.971094 143.118125 
L 278.352912 137.627216 
L 281.73473 132.136307 
L 285.116548 126.645398 
L 288.498366 121.154489 
L 291.880185 115.66358 
L 295.262003 110.17267 
L 298.643821 104.681761 
L 302.025639 99.190852 
L 305.407457 93.699943 
L 308.789276 88.209034 
L 312.171094 82.718125 
L 315.552912 77.227216 
L 318.93473 71.736307 
L 322.316548 66.245398 
L 325.698366 60.754489 
L 329.080185 55.26358 
L 332.462003 49.77267 
L 335.843821 44.281761 
L 339.225639 38.790852 
L 342.607457 33.299943 
L 345.989276 27.809034 
L 349.371094 22.318125 
" style="fill:none;stroke:#1f77b4;stroke-linecap:square;stroke-width:1.5;"/>
   </g>
   <g id="line2d_12">
    <path clip-path="url(#p5fa9f909a3)" d="M 14.571094 239.758125 
L 17.952912 239.758125 
L 21.33473 239.758125 
L 24.716548 239.758125 
L 28.098366 239.758125 
L 31.480185 239.758125 
L 34.862003 239.758125 
L 38.243821 239.758125 
L 41.625639 239.758125 
L 45.007457 239.758125 
L 48.389276 239.758125 
L 51.771094 239.758125 
L 55.152912 239.758125 
L 58.53473 239.758125 
L 61.916548 239.758125 
L 65.298366 239.758125 
L 68.680185 239.758125 
L 72.062003 239.758125 
L 75.443821 239.758125 
L 78.825639 239.758125 
L 82.207457 239.758125 
L 85.589276 239.758125 
L 88.971094 239.758125 
L 92.352912 239.758125 
L 95.73473 239.758125 
L 99.116548 239.758125 
L 102.498366 239.758125 
L 105.880185 239.758125 
L 109.262003 239.758125 
L 112.643821 239.758125 
L 116.025639 239.758125 
L 119.407457 239.758125 
L 122.789276 239.758125 
L 126.171094 239.758125 
L 129.552912 239.758125 
L 132.93473 239.758125 
L 136.316548 239.758125 
L 139.698366 239.758125 
L 143.080185 239.758125 
L 146.462003 239.758125 
L 149.843821 239.747032 
L 153.225639 239.622239 
L 156.607457 239.358786 
L 159.989276 238.956674 
L 163.371094 238.415903 
L 166.752912 237.736472 
L 170.13473 236.918382 
L 173.516548 235.961633 
L 176.898366 234.866224 
L 180.280185 233.632156 
L 183.662003 232.259429 
L 187.043821 230.748042 
L 190.425639 229.097996 
L 193.807457 227.309291 
L 197.189276 225.381927 
L 200.571094 223.315903 
L 203.952912 221.11122 
L 207.33473 218.767877 
L 210.716548 216.285875 
L 214.098366 213.665214 
L 217.480185 210.905894 
L 220.862003 208.007914 
L 224.243821 204.971275 
L 227.625639 201.795976 
L 231.007457 198.482018 
L 234.389276 195.029401 
L 237.771094 191.438125 
L 241.152912 187.708189 
L 244.53473 183.839594 
L 247.916548 179.83234 
L 251.298366 175.686426 
L 254.680185 171.401853 
L 258.062003 166.978621 
L 261.443821 162.416729 
L 264.825639 157.716178 
L 268.207457 152.876968 
L 271.589276 147.899098 
L 274.971094 142.782569 
L 278.352912 137.527381 
L 281.73473 132.133534 
L 285.116548 126.601027 
L 288.498366 120.929861 
L 291.880185 115.120035 
L 295.262003 109.17155 
L 298.643821 103.084406 
L 302.025639 96.858603 
L 305.407457 90.49414 
L 308.789276 83.991018 
L 312.171094 77.349236 
L 315.552912 70.568795 
L 318.93473 63.649695 
L 322.316548 56.591936 
L 325.698366 49.395517 
L 329.080185 42.060439 
L 332.462003 34.586702 
L 335.843821 26.974305 
L 339.225639 19.223249 
L 342.607457 11.333534 
L 345.989276 3.305159 
L 347.771963 -1 
" style="fill:none;stroke:#ff7f0e;stroke-linecap:square;stroke-width:1.5;"/>
   </g>
   <g id="line2d_13">
    <path clip-path="url(#p5fa9f909a3)" d="M 14.571094 237.766849 
L 17.952912 237.663696 
L 21.33473 237.5552 
L 24.716548 237.441084 
L 28.098366 237.321056 
L 31.480185 237.194811 
L 34.862003 237.062026 
L 38.243821 236.922362 
L 41.625639 236.775463 
L 45.007457 236.620955 
L 48.389276 236.458442 
L 51.771094 236.287512 
L 55.152912 236.107726 
L 58.53473 235.918628 
L 61.916548 235.719733 
L 65.298366 235.510536 
L 68.680185 235.290502 
L 72.062003 235.059069 
L 75.443821 234.815648 
L 78.825639 234.559617 
L 82.207457 234.290323 
L 85.589276 234.007079 
L 88.971094 233.709162 
L 92.352912 233.395812 
L 95.73473 233.066231 
L 99.116548 232.719576 
L 102.498366 232.354964 
L 105.880185 231.971464 
L 109.262003 231.568098 
L 112.643821 231.143837 
L 116.025639 230.697598 
L 119.407457 230.228243 
L 122.789276 229.734574 
L 126.171094 229.215333 
L 129.552912 228.669193 
L 132.93473 228.094762 
L 136.316548 227.490575 
L 139.698366 226.855089 
L 143.080185 226.186684 
L 146.462003 225.483653 
L 149.843821 224.744205 
L 153.225639 223.966451 
L 156.607457 223.148408 
L 159.989276 222.287988 
L 163.371094 221.382997 
L 166.752912 220.431126 
L 170.13473 219.429945 
L 173.516548 218.376901 
L 176.898366 217.269307 
L 180.280185 216.104338 
L 183.662003 214.87902 
L 187.043821 213.590228 
L 190.425639 212.234674 
L 193.807457 210.8089 
L 197.189276 209.309267 
L 200.571094 207.73195 
L 203.952912 206.072924 
L 207.33473 204.327957 
L 210.716548 202.492598 
L 214.098366 200.562162 
L 217.480185 198.531726 
L 220.862003 196.396109 
L 224.243821 194.149862 
L 227.625639 191.787255 
L 231.007457 189.30226 
L 234.389276 186.688536 
L 237.771094 183.939416 
L 241.152912 181.047885 
L 244.53473 178.006567 
L 247.916548 174.807702 
L 251.298366 171.443129 
L 254.680185 167.904263 
L 258.062003 164.182077 
L 261.443821 160.267073 
L 264.825639 156.149264 
L 268.207457 151.818143 
L 271.589276 147.262661 
L 274.971094 142.471194 
L 278.352912 137.43152 
L 281.73473 132.130779 
L 285.116548 126.555448 
L 288.498366 120.691303 
L 291.880185 114.523383 
L 295.262003 108.035951 
L 298.643821 101.212456 
L 302.025639 94.035489 
L 305.407457 86.486739 
L 308.789276 78.546948 
L 312.171094 70.195858 
L 315.552912 61.412164 
L 318.93473 52.173455 
L 322.316548 42.456161 
L 325.698366 32.23549 
L 329.080185 21.485366 
L 332.462003 10.178363 
L 335.640683 -1 
" style="fill:none;stroke:#000000;stroke-dasharray:5.55,2.4;stroke-dashoffset:0;stroke-width:1.5;"/>
   </g>
   <g id="line2d_14">
    <path clip-path="url(#p5fa9f909a3)" d="M 14.571094 227.678125 
L 17.952912 227.472161 
L 21.33473 227.260884 
L 24.716548 227.044111 
L 28.098366 226.821647 
L 31.480185 226.593294 
L 34.862003 226.35884 
L 38.243821 226.118067 
L 41.625639 225.870746 
L 45.007457 225.616636 
L 48.389276 225.355488 
L 51.771094 225.087038 
L 55.152912 224.811012 
L 58.53473 224.527123 
L 61.916548 224.235068 
L 65.298366 223.934532 
L 68.680185 223.625182 
L 72.062003 223.306672 
L 75.443821 222.978635 
L 78.825639 222.640688 
L 82.207457 222.292428 
L 85.589276 221.93343 
L 88.971094 221.563249 
L 92.352912 221.181415 
L 95.73473 220.787434 
L 99.116548 220.380786 
L 102.498366 219.960921 
L 105.880185 219.52726 
L 109.262003 219.079192 
L 112.643821 218.616073 
L 116.025639 218.137219 
L 119.407457 217.641911 
L 122.789276 217.129385 
L 126.171094 216.598835 
L 129.552912 216.049405 
L 132.93473 215.480188 
L 136.316548 214.890223 
L 139.698366 214.27849 
L 143.080185 213.643903 
L 146.462003 212.98531 
L 149.843821 212.301486 
L 153.225639 211.591123 
L 156.607457 210.852832 
L 159.989276 210.085129 
L 163.371094 209.286429 
L 166.752912 208.455044 
L 170.13473 207.589162 
L 173.516548 206.686851 
L 176.898366 205.746037 
L 180.280185 204.764497 
L 183.662003 203.739848 
L 187.043821 202.669526 
L 190.425639 201.550777 
L 193.807457 200.380635 
L 197.189276 199.155903 
L 200.571094 197.873131 
L 203.952912 196.528594 
L 207.33473 195.118261 
L 210.716548 193.637768 
L 214.098366 192.082384 
L 217.480185 190.446971 
L 220.862003 188.725943 
L 224.243821 186.913217 
L 227.625639 185.002162 
L 231.007457 182.985536 
L 234.389276 180.855417 
L 237.771094 178.603125 
L 241.152912 176.219137 
L 244.53473 173.69298 
L 247.916548 171.013123 
L 251.298366 168.166838 
L 254.680185 165.140053 
L 258.062003 161.917178 
L 261.443821 158.480901 
L 264.825639 154.811958 
L 268.207457 150.888859 
L 271.589276 146.687576 
L 274.971094 142.181172 
L 278.352912 137.339371 
L 281.73473 132.128043 
L 285.116548 126.508606 
L 288.498366 120.437309 
L 291.880185 113.864373 
L 295.262003 106.732973 
L 298.643821 98.978006 
L 302.025639 90.524594 
L 305.407457 81.286275 
L 308.789276 71.162781 
L 312.171094 60.037309 
L 315.552912 47.77313 
L 318.93473 34.209375 
L 322.316548 19.15573 
L 325.698366 2.385721 
L 326.308781 -1 
" style="fill:none;stroke:#2ca02c;stroke-linecap:square;stroke-width:1.5;"/>
   </g>
   <g id="line2d_15">
    <path clip-path="url(#p5fa9f909a3)" d="M 14.571094 218.014125 
L 17.952912 217.792247 
L 21.33473 217.565795 
L 24.716548 217.334625 
L 28.098366 217.098588 
L 31.480185 216.857529 
L 34.862003 216.611286 
L 38.243821 216.35969 
L 41.625639 216.102565 
L 45.007457 215.839725 
L 48.389276 215.570979 
L 51.771094 215.296125 
L 55.152912 215.014953 
L 58.53473 214.727241 
L 61.916548 214.43276 
L 65.298366 214.131268 
L 68.680185 213.822511 
L 72.062003 213.506223 
L 75.443821 213.182125 
L 78.825639 212.849925 
L 82.207457 212.509315 
L 85.589276 212.159971 
L 88.971094 211.801554 
L 92.352912 211.433704 
L 95.73473 211.056045 
L 99.116548 210.668179 
L 102.498366 210.269687 
L 105.880185 209.860125 
L 109.262003 209.439026 
L 112.643821 209.005896 
L 116.025639 208.560212 
L 119.407457 208.101419 
L 122.789276 207.628931 
L 126.171094 207.142125 
L 129.552912 206.64034 
L 132.93473 206.122875 
L 136.316548 205.588982 
L 139.698366 205.037867 
L 143.080185 204.468682 
L 146.462003 203.880525 
L 149.843821 203.27243 
L 153.225639 202.643366 
L 156.607457 201.99223 
L 159.989276 201.317839 
L 163.371094 200.618925 
L 166.752912 199.894125 
L 170.13473 199.141974 
L 173.516548 198.360894 
L 176.898366 197.549184 
L 180.280185 196.705005 
L 183.662003 195.82637 
L 187.043821 194.911125 
L 190.425639 193.956934 
L 193.807457 192.961255 
L 197.189276 191.921325 
L 200.571094 190.834125 
L 203.952912 189.696358 
L 207.33473 188.504411 
L 210.716548 187.25432 
L 214.098366 185.941725 
L 217.480185 184.561817 
L 220.862003 183.109283 
L 224.243821 181.578233 
L 227.625639 179.962125 
L 231.007457 178.253668 
L 234.389276 176.444713 
L 237.771094 174.526125 
L 241.152912 172.487625 
L 244.53473 170.317609 
L 247.916548 168.002925 
L 251.298366 165.528608 
L 254.680185 162.877554 
L 258.062003 160.030125 
L 261.443821 156.963663 
L 264.825639 153.651885 
L 268.207457 150.064125 
L 271.589276 146.164386 
L 274.971094 141.910125 
L 278.352912 137.250696 
L 281.73473 132.125325 
L 285.116548 126.460441 
L 288.498366 120.166125 
L 291.880185 113.131301 
L 295.262003 105.217125 
L 298.643821 96.247725 
L 302.025639 85.996982 
L 305.407457 74.169202 
L 308.789276 60.370125 
L 312.171094 44.062125 
L 315.552912 24.492525 
L 318.93473 0.574125 
L 319.112782 -1 
" style="fill:none;stroke:#d62728;stroke-linecap:square;stroke-width:1.5;"/>
   </g>
   <g id="patch_3">
    <path d="M 282.411094 239.758125 
L 282.411094 22.318125 
" style="fill:none;stroke:#000000;stroke-linecap:square;stroke-linejoin:miter;stroke-width:0.8;"/>
   </g>
   <g id="patch_4">
    <path d="M 349.371094 239.758125 
L 349.371094 22.318125 
" style="fill:none;"/>
   </g>
   <g id="patch_5">
    <path d="M 14.571094 239.758125 
L 349.371094 239.758125 
" style="fill:none;stroke:#000000;stroke-linecap:square;stroke-linejoin:miter;stroke-width:0.8;"/>
   </g>
   <g id="patch_6">
    <path d="M 14.571094 22.318125 
L 349.371094 22.318125 
" style="fill:none;"/>
   </g>
   <g id="text_11">
    <!-- Tempered exponential -->
    <g transform="translate(115.271719 16.318125)scale(0.12 -0.12)">
     <defs>
      <path d="M -0.296875 72.90625 
L 61.375 72.90625 
L 61.375 64.59375 
L 35.5 64.59375 
L 35.5 0 
L 25.59375 0 
L 25.59375 64.59375 
L -0.296875 64.59375 
z
" id="DejaVuSans-84"/>
      <path d="M 56.203125 29.59375 
L 56.203125 25.203125 
L 14.890625 25.203125 
Q 15.484375 15.921875 20.484375 11.0625 
Q 25.484375 6.203125 34.421875 6.203125 
Q 39.59375 6.203125 44.453125 7.46875 
Q 49.3125 8.734375 54.109375 11.28125 
L 54.109375 2.78125 
Q 49.265625 0.734375 44.1875 -0.34375 
Q 39.109375 -1.421875 33.890625 -1.421875 
Q 20.796875 -1.421875 13.15625 6.1875 
Q 5.515625 13.8125 5.515625 26.8125 
Q 5.515625 40.234375 12.765625 48.109375 
Q 20.015625 56 32.328125 56 
Q 43.359375 56 49.78125 48.890625 
Q 56.203125 41.796875 56.203125 29.59375 
z
M 47.21875 32.234375 
Q 47.125 39.59375 43.09375 43.984375 
Q 39.0625 48.390625 32.421875 48.390625 
Q 24.90625 48.390625 20.390625 44.140625 
Q 15.875 39.890625 15.1875 32.171875 
z
" id="DejaVuSans-101"/>
      <path d="M 52 44.1875 
Q 55.375 50.25 60.0625 53.125 
Q 64.75 56 71.09375 56 
Q 79.640625 56 84.28125 50.015625 
Q 88.921875 44.046875 88.921875 33.015625 
L 88.921875 0 
L 79.890625 0 
L 79.890625 32.71875 
Q 79.890625 40.578125 77.09375 44.375 
Q 74.3125 48.1875 68.609375 48.1875 
Q 61.625 48.1875 57.5625 43.546875 
Q 53.515625 38.921875 53.515625 30.90625 
L 53.515625 0 
L 44.484375 0 
L 44.484375 32.71875 
Q 44.484375 40.625 41.703125 44.40625 
Q 38.921875 48.1875 33.109375 48.1875 
Q 26.21875 48.1875 22.15625 43.53125 
Q 18.109375 38.875 18.109375 30.90625 
L 18.109375 0 
L 9.078125 0 
L 9.078125 54.6875 
L 18.109375 54.6875 
L 18.109375 46.1875 
Q 21.1875 51.21875 25.484375 53.609375 
Q 29.78125 56 35.6875 56 
Q 41.65625 56 45.828125 52.96875 
Q 50 49.953125 52 44.1875 
z
" id="DejaVuSans-109"/>
      <path d="M 18.109375 8.203125 
L 18.109375 -20.796875 
L 9.078125 -20.796875 
L 9.078125 54.6875 
L 18.109375 54.6875 
L 18.109375 46.390625 
Q 20.953125 51.265625 25.265625 53.625 
Q 29.59375 56 35.59375 56 
Q 45.5625 56 51.78125 48.09375 
Q 58.015625 40.1875 58.015625 27.296875 
Q 58.015625 14.40625 51.78125 6.484375 
Q 45.5625 -1.421875 35.59375 -1.421875 
Q 29.59375 -1.421875 25.265625 0.953125 
Q 20.953125 3.328125 18.109375 8.203125 
z
M 48.6875 27.296875 
Q 48.6875 37.203125 44.609375 42.84375 
Q 40.53125 48.484375 33.40625 48.484375 
Q 26.265625 48.484375 22.1875 42.84375 
Q 18.109375 37.203125 18.109375 27.296875 
Q 18.109375 17.390625 22.1875 11.75 
Q 26.265625 6.109375 33.40625 6.109375 
Q 40.53125 6.109375 44.609375 11.75 
Q 48.6875 17.390625 48.6875 27.296875 
z
" id="DejaVuSans-112"/>
      <path d="M 41.109375 46.296875 
Q 39.59375 47.171875 37.8125 47.578125 
Q 36.03125 48 33.890625 48 
Q 26.265625 48 22.1875 43.046875 
Q 18.109375 38.09375 18.109375 28.8125 
L 18.109375 0 
L 9.078125 0 
L 9.078125 54.6875 
L 18.109375 54.6875 
L 18.109375 46.1875 
Q 20.953125 51.171875 25.484375 53.578125 
Q 30.03125 56 36.53125 56 
Q 37.453125 56 38.578125 55.875 
Q 39.703125 55.765625 41.0625 55.515625 
z
" id="DejaVuSans-114"/>
      <path d="M 45.40625 46.390625 
L 45.40625 75.984375 
L 54.390625 75.984375 
L 54.390625 0 
L 45.40625 0 
L 45.40625 8.203125 
Q 42.578125 3.328125 38.25 0.953125 
Q 33.9375 -1.421875 27.875 -1.421875 
Q 17.96875 -1.421875 11.734375 6.484375 
Q 5.515625 14.40625 5.515625 27.296875 
Q 5.515625 40.1875 11.734375 48.09375 
Q 17.96875 56 27.875 56 
Q 33.9375 56 38.25 53.625 
Q 42.578125 51.265625 45.40625 46.390625 
z
M 14.796875 27.296875 
Q 14.796875 17.390625 18.875 11.75 
Q 22.953125 6.109375 30.078125 6.109375 
Q 37.203125 6.109375 41.296875 11.75 
Q 45.40625 17.390625 45.40625 27.296875 
Q 45.40625 37.203125 41.296875 42.84375 
Q 37.203125 48.484375 30.078125 48.484375 
Q 22.953125 48.484375 18.875 42.84375 
Q 14.796875 37.203125 14.796875 27.296875 
z
" id="DejaVuSans-100"/>
      <path id="DejaVuSans-32"/>
      <path d="M 54.890625 54.6875 
L 35.109375 28.078125 
L 55.90625 0 
L 45.3125 0 
L 29.390625 21.484375 
L 13.484375 0 
L 2.875 0 
L 24.125 28.609375 
L 4.6875 54.6875 
L 15.28125 54.6875 
L 29.78125 35.203125 
L 44.28125 54.6875 
z
" id="DejaVuSans-120"/>
      <path d="M 30.609375 48.390625 
Q 23.390625 48.390625 19.1875 42.75 
Q 14.984375 37.109375 14.984375 27.296875 
Q 14.984375 17.484375 19.15625 11.84375 
Q 23.34375 6.203125 30.609375 6.203125 
Q 37.796875 6.203125 41.984375 11.859375 
Q 46.1875 17.53125 46.1875 27.296875 
Q 46.1875 37.015625 41.984375 42.703125 
Q 37.796875 48.390625 30.609375 48.390625 
z
M 30.609375 56 
Q 42.328125 56 49.015625 48.375 
Q 55.71875 40.765625 55.71875 27.296875 
Q 55.71875 13.875 49.015625 6.21875 
Q 42.328125 -1.421875 30.609375 -1.421875 
Q 18.84375 -1.421875 12.171875 6.21875 
Q 5.515625 13.875 5.515625 27.296875 
Q 5.515625 40.765625 12.171875 48.375 
Q 18.84375 56 30.609375 56 
z
" id="DejaVuSans-111"/>
      <path d="M 54.890625 33.015625 
L 54.890625 0 
L 45.90625 0 
L 45.90625 32.71875 
Q 45.90625 40.484375 42.875 44.328125 
Q 39.84375 48.1875 33.796875 48.1875 
Q 26.515625 48.1875 22.3125 43.546875 
Q 18.109375 38.921875 18.109375 30.90625 
L 18.109375 0 
L 9.078125 0 
L 9.078125 54.6875 
L 18.109375 54.6875 
L 18.109375 46.1875 
Q 21.34375 51.125 25.703125 53.5625 
Q 30.078125 56 35.796875 56 
Q 45.21875 56 50.046875 50.171875 
Q 54.890625 44.34375 54.890625 33.015625 
z
" id="DejaVuSans-110"/>
      <path d="M 18.3125 70.21875 
L 18.3125 54.6875 
L 36.8125 54.6875 
L 36.8125 47.703125 
L 18.3125 47.703125 
L 18.3125 18.015625 
Q 18.3125 11.328125 20.140625 9.421875 
Q 21.96875 7.515625 27.59375 7.515625 
L 36.8125 7.515625 
L 36.8125 0 
L 27.59375 0 
Q 17.1875 0 13.234375 3.875 
Q 9.28125 7.765625 9.28125 18.015625 
L 9.28125 47.703125 
L 2.6875 47.703125 
L 2.6875 54.6875 
L 9.28125 54.6875 
L 9.28125 70.21875 
z
" id="DejaVuSans-116"/>
      <path d="M 9.421875 54.6875 
L 18.40625 54.6875 
L 18.40625 0 
L 9.421875 0 
z
M 9.421875 75.984375 
L 18.40625 75.984375 
L 18.40625 64.59375 
L 9.421875 64.59375 
z
" id="DejaVuSans-105"/>
      <path d="M 34.28125 27.484375 
Q 23.390625 27.484375 19.1875 25 
Q 14.984375 22.515625 14.984375 16.5 
Q 14.984375 11.71875 18.140625 8.90625 
Q 21.296875 6.109375 26.703125 6.109375 
Q 34.1875 6.109375 38.703125 11.40625 
Q 43.21875 16.703125 43.21875 25.484375 
L 43.21875 27.484375 
z
M 52.203125 31.203125 
L 52.203125 0 
L 43.21875 0 
L 43.21875 8.296875 
Q 40.140625 3.328125 35.546875 0.953125 
Q 30.953125 -1.421875 24.3125 -1.421875 
Q 15.921875 -1.421875 10.953125 3.296875 
Q 6 8.015625 6 15.921875 
Q 6 25.140625 12.171875 29.828125 
Q 18.359375 34.515625 30.609375 34.515625 
L 43.21875 34.515625 
L 43.21875 35.40625 
Q 43.21875 41.609375 39.140625 45 
Q 35.0625 48.390625 27.6875 48.390625 
Q 23 48.390625 18.546875 47.265625 
Q 14.109375 46.140625 10.015625 43.890625 
L 10.015625 52.203125 
Q 14.9375 54.109375 19.578125 55.046875 
Q 24.21875 56 28.609375 56 
Q 40.484375 56 46.34375 49.84375 
Q 52.203125 43.703125 52.203125 31.203125 
z
" id="DejaVuSans-97"/>
      <path d="M 9.421875 75.984375 
L 18.40625 75.984375 
L 18.40625 0 
L 9.421875 0 
z
" id="DejaVuSans-108"/>
     </defs>
     <use xlink:href="#DejaVuSans-84"/>
     <use x="44.083984" xlink:href="#DejaVuSans-101"/>
     <use x="105.607422" xlink:href="#DejaVuSans-109"/>
     <use x="203.019531" xlink:href="#DejaVuSans-112"/>
     <use x="266.496094" xlink:href="#DejaVuSans-101"/>
     <use x="328.019531" xlink:href="#DejaVuSans-114"/>
     <use x="366.882812" xlink:href="#DejaVuSans-101"/>
     <use x="428.40625" xlink:href="#DejaVuSans-100"/>
     <use x="491.882812" xlink:href="#DejaVuSans-32"/>
     <use x="523.669922" xlink:href="#DejaVuSans-101"/>
     <use x="583.443359" xlink:href="#DejaVuSans-120"/>
     <use x="642.623047" xlink:href="#DejaVuSans-112"/>
     <use x="706.099609" xlink:href="#DejaVuSans-111"/>
     <use x="767.28125" xlink:href="#DejaVuSans-110"/>
     <use x="830.660156" xlink:href="#DejaVuSans-101"/>
     <use x="892.183594" xlink:href="#DejaVuSans-110"/>
     <use x="955.5625" xlink:href="#DejaVuSans-116"/>
     <use x="994.771484" xlink:href="#DejaVuSans-105"/>
     <use x="1022.554688" xlink:href="#DejaVuSans-97"/>
     <use x="1083.833984" xlink:href="#DejaVuSans-108"/>
    </g>
   </g>
   <g id="legend_1">
    <g id="patch_7">
     <path d="M 21.571094 103.70875 
L 94.492969 103.70875 
Q 96.492969 103.70875 96.492969 101.70875 
L 96.492969 29.318125 
Q 96.492969 27.318125 94.492969 27.318125 
L 21.571094 27.318125 
Q 19.571094 27.318125 19.571094 29.318125 
L 19.571094 101.70875 
Q 19.571094 103.70875 21.571094 103.70875 
z
" style="fill:#ffffff;opacity:0.8;stroke:#cccccc;stroke-linejoin:miter;"/>
    </g>
    <g id="line2d_16">
     <path d="M 23.571094 35.416562 
L 43.571094 35.416562 
" style="fill:none;stroke:#1f77b4;stroke-linecap:square;stroke-width:1.5;"/>
    </g>
    <g id="line2d_17"/>
    <g id="text_12">
     <!-- t = 0.00 -->
     <g transform="translate(51.571094 38.916562)scale(0.1 -0.1)">
      <defs>
       <path d="M 10.59375 45.40625 
L 73.1875 45.40625 
L 73.1875 37.203125 
L 10.59375 37.203125 
z
M 10.59375 25.484375 
L 73.1875 25.484375 
L 73.1875 17.1875 
L 10.59375 17.1875 
z
" id="DejaVuSans-61"/>
      </defs>
      <use xlink:href="#DejaVuSans-116"/>
      <use x="39.208984" xlink:href="#DejaVuSans-32"/>
      <use x="70.996094" xlink:href="#DejaVuSans-61"/>
      <use x="154.785156" xlink:href="#DejaVuSans-32"/>
      <use x="186.572266" xlink:href="#DejaVuSans-48"/>
      <use x="250.195312" xlink:href="#DejaVuSans-46"/>
      <use x="281.982422" xlink:href="#DejaVuSans-48"/>
      <use x="345.605469" xlink:href="#DejaVuSans-48"/>
     </g>
    </g>
    <g id="line2d_18">
     <path d="M 23.571094 50.094687 
L 43.571094 50.094687 
" style="fill:none;stroke:#ff7f0e;stroke-linecap:square;stroke-width:1.5;"/>
    </g>
    <g id="line2d_19"/>
    <g id="text_13">
     <!-- t = 0.50 -->
     <g transform="translate(51.571094 53.594687)scale(0.1 -0.1)">
      <use xlink:href="#DejaVuSans-116"/>
      <use x="39.208984" xlink:href="#DejaVuSans-32"/>
      <use x="70.996094" xlink:href="#DejaVuSans-61"/>
      <use x="154.785156" xlink:href="#DejaVuSans-32"/>
      <use x="186.572266" xlink:href="#DejaVuSans-48"/>
      <use x="250.195312" xlink:href="#DejaVuSans-46"/>
      <use x="281.982422" xlink:href="#DejaVuSans-53"/>
      <use x="345.605469" xlink:href="#DejaVuSans-48"/>
     </g>
    </g>
    <g id="line2d_20">
     <path d="M 23.571094 64.772812 
L 43.571094 64.772812 
" style="fill:none;stroke:#000000;stroke-dasharray:5.55,2.4;stroke-dashoffset:0;stroke-width:1.5;"/>
    </g>
    <g id="line2d_21"/>
    <g id="text_14">
     <!-- t = 1.00 -->
     <g transform="translate(51.571094 68.272812)scale(0.1 -0.1)">
      <use xlink:href="#DejaVuSans-116"/>
      <use x="39.208984" xlink:href="#DejaVuSans-32"/>
      <use x="70.996094" xlink:href="#DejaVuSans-61"/>
      <use x="154.785156" xlink:href="#DejaVuSans-32"/>
      <use x="186.572266" xlink:href="#DejaVuSans-49"/>
      <use x="250.195312" xlink:href="#DejaVuSans-46"/>
      <use x="281.982422" xlink:href="#DejaVuSans-48"/>
      <use x="345.605469" xlink:href="#DejaVuSans-48"/>
     </g>
    </g>
    <g id="line2d_22">
     <path d="M 23.571094 79.450938 
L 43.571094 79.450938 
" style="fill:none;stroke:#2ca02c;stroke-linecap:square;stroke-width:1.5;"/>
    </g>
    <g id="line2d_23"/>
    <g id="text_15">
     <!-- t = 1.50 -->
     <g transform="translate(51.571094 82.950938)scale(0.1 -0.1)">
      <use xlink:href="#DejaVuSans-116"/>
      <use x="39.208984" xlink:href="#DejaVuSans-32"/>
      <use x="70.996094" xlink:href="#DejaVuSans-61"/>
      <use x="154.785156" xlink:href="#DejaVuSans-32"/>
      <use x="186.572266" xlink:href="#DejaVuSans-49"/>
      <use x="250.195312" xlink:href="#DejaVuSans-46"/>
      <use x="281.982422" xlink:href="#DejaVuSans-53"/>
      <use x="345.605469" xlink:href="#DejaVuSans-48"/>
     </g>
    </g>
    <g id="line2d_24">
     <path d="M 23.571094 94.129063 
L 43.571094 94.129063 
" style="fill:none;stroke:#d62728;stroke-linecap:square;stroke-width:1.5;"/>
    </g>
    <g id="line2d_25"/>
    <g id="text_16">
     <!-- t = 2.00 -->
     <g transform="translate(51.571094 97.629063)scale(0.1 -0.1)">
      <use xlink:href="#DejaVuSans-116"/>
      <use x="39.208984" xlink:href="#DejaVuSans-32"/>
      <use x="70.996094" xlink:href="#DejaVuSans-61"/>
      <use x="154.785156" xlink:href="#DejaVuSans-32"/>
      <use x="186.572266" xlink:href="#DejaVuSans-50"/>
      <use x="250.195312" xlink:href="#DejaVuSans-46"/>
      <use x="281.982422" xlink:href="#DejaVuSans-48"/>
      <use x="345.605469" xlink:href="#DejaVuSans-48"/>
     </g>
    </g>
   </g>
  </g>
 </g>
 <defs>
  <clipPath id="p5fa9f909a3">
   <rect height="217.44" width="334.8" x="14.571094" y="22.318125"/>
  </clipPath>
 </defs>
</svg>
