<?xml version="1.0" encoding="utf-8" standalone="no"?>
<!DOCTYPE svg PUBLIC "-//W3C//DTD SVG 1.1//EN"
  "http://www.w3.org/Graphics/SVG/1.1/DTD/svg11.dtd">
<!-- Created with matplotlib (https://matplotlib.org/) -->
<svg height="252.837031pt" version="1.1" viewBox="0 0 388.434375 252.837031" width="388.434375pt" xmlns="http://www.w3.org/2000/svg" xmlns:xlink="http://www.w3.org/1999/xlink">
 <metadata>
  <rdf:RDF xmlns:cc="http://creativecommons.org/ns#" xmlns:dc="http://purl.org/dc/elements/1.1/" xmlns:rdf="http://www.w3.org/1999/02/22-rdf-syntax-ns#">
   <cc:Work>
    <dc:type rdf:resource="http://purl.org/dc/dcmitype/StillImage"/>
    <dc:date>2021-10-22T10:45:36.752037</dc:date>
    <dc:format>image/svg+xml</dc:format>
    <dc:creator>
     <cc:Agent>
      <dc:title>Matplotlib v3.3.4, https://matplotlib.org/</dc:title>
     </cc:Agent>
    </dc:creator>
   </cc:Work>
  </rdf:RDF>
 </metadata>
 <defs>
  <style type="text/css">*{stroke-linecap:butt;stroke-linejoin:round;}</style>
 </defs>
 <g id="figure_1">
  <g id="patch_1">
   <path d="M -0 252.837031 
L 388.434375 252.837031 
L 388.434375 0 
L -0 0 
z
" style="fill:none;"/>
  </g>
  <g id="axes_1">
   <g id="patch_2">
    <path d="M 38.482813 239.758125 
L 373.282813 239.758125 
L 373.282813 22.318125 
L 38.482813 22.318125 
z
" style="fill:#ffffff;"/>
   </g>
   <g id="matplotlib.axis_1">
    <g id="xtick_1">
     <g id="line2d_1">
      <defs>
       <path d="M 0 0 
L 0 3.5 
" id="m28a57807c2" style="stroke:#000000;stroke-width:0.8;"/>
      </defs>
      <g>
       <use style="stroke:#000000;stroke-width:0.8;" x="94.282813" xlink:href="#m28a57807c2" y="131.038125"/>
      </g>
     </g>
     <g id="text_1">
      <!-- 0.5 -->
      <g transform="translate(86.33125 145.636562)scale(0.1 -0.1)">
       <defs>
        <path d="M 31.78125 66.40625 
Q 24.171875 66.40625 20.328125 58.90625 
Q 16.5 51.421875 16.5 36.375 
Q 16.5 21.390625 20.328125 13.890625 
Q 24.171875 6.390625 31.78125 6.390625 
Q 39.453125 6.390625 43.28125 13.890625 
Q 47.125 21.390625 47.125 36.375 
Q 47.125 51.421875 43.28125 58.90625 
Q 39.453125 66.40625 31.78125 66.40625 
z
M 31.78125 74.21875 
Q 44.046875 74.21875 50.515625 64.515625 
Q 56.984375 54.828125 56.984375 36.375 
Q 56.984375 17.96875 50.515625 8.265625 
Q 44.046875 -1.421875 31.78125 -1.421875 
Q 19.53125 -1.421875 13.0625 8.265625 
Q 6.59375 17.96875 6.59375 36.375 
Q 6.59375 54.828125 13.0625 64.515625 
Q 19.53125 74.21875 31.78125 74.21875 
z
" id="DejaVuSans-48"/>
        <path d="M 10.6875 12.40625 
L 21 12.40625 
L 21 0 
L 10.6875 0 
z
" id="DejaVuSans-46"/>
        <path d="M 10.796875 72.90625 
L 49.515625 72.90625 
L 49.515625 64.59375 
L 19.828125 64.59375 
L 19.828125 46.734375 
Q 21.96875 47.46875 24.109375 47.828125 
Q 26.265625 48.1875 28.421875 48.1875 
Q 40.625 48.1875 47.75 41.5 
Q 54.890625 34.8125 54.890625 23.390625 
Q 54.890625 11.625 47.5625 5.09375 
Q 40.234375 -1.421875 26.90625 -1.421875 
Q 22.3125 -1.421875 17.546875 -0.640625 
Q 12.796875 0.140625 7.71875 1.703125 
L 7.71875 11.625 
Q 12.109375 9.234375 16.796875 8.0625 
Q 21.484375 6.890625 26.703125 6.890625 
Q 35.15625 6.890625 40.078125 11.328125 
Q 45.015625 15.765625 45.015625 23.390625 
Q 45.015625 31 40.078125 35.4375 
Q 35.15625 39.890625 26.703125 39.890625 
Q 22.75 39.890625 18.8125 39.015625 
Q 14.890625 38.140625 10.796875 36.28125 
z
" id="DejaVuSans-53"/>
       </defs>
       <use xlink:href="#DejaVuSans-48"/>
       <use x="63.623047" xlink:href="#DejaVuSans-46"/>
       <use x="95.410156" xlink:href="#DejaVuSans-53"/>
      </g>
     </g>
    </g>
    <g id="xtick_2">
     <g id="line2d_2">
      <g>
       <use style="stroke:#000000;stroke-width:0.8;" x="150.082812" xlink:href="#m28a57807c2" y="131.038125"/>
      </g>
     </g>
     <g id="text_2">
      <!-- 1.0 -->
      <g transform="translate(142.13125 145.636562)scale(0.1 -0.1)">
       <defs>
        <path d="M 12.40625 8.296875 
L 28.515625 8.296875 
L 28.515625 63.921875 
L 10.984375 60.40625 
L 10.984375 69.390625 
L 28.421875 72.90625 
L 38.28125 72.90625 
L 38.28125 8.296875 
L 54.390625 8.296875 
L 54.390625 0 
L 12.40625 0 
z
" id="DejaVuSans-49"/>
       </defs>
       <use xlink:href="#DejaVuSans-49"/>
       <use x="63.623047" xlink:href="#DejaVuSans-46"/>
       <use x="95.410156" xlink:href="#DejaVuSans-48"/>
      </g>
     </g>
    </g>
    <g id="xtick_3">
     <g id="line2d_3">
      <g>
       <use style="stroke:#000000;stroke-width:0.8;" x="205.882812" xlink:href="#m28a57807c2" y="131.038125"/>
      </g>
     </g>
     <g id="text_3">
      <!-- 1.5 -->
      <g transform="translate(197.93125 145.636562)scale(0.1 -0.1)">
       <use xlink:href="#DejaVuSans-49"/>
       <use x="63.623047" xlink:href="#DejaVuSans-46"/>
       <use x="95.410156" xlink:href="#DejaVuSans-53"/>
      </g>
     </g>
    </g>
    <g id="xtick_4">
     <g id="line2d_4">
      <g>
       <use style="stroke:#000000;stroke-width:0.8;" x="261.682813" xlink:href="#m28a57807c2" y="131.038125"/>
      </g>
     </g>
     <g id="text_4">
      <!-- 2.0 -->
      <g transform="translate(253.73125 145.636562)scale(0.1 -0.1)">
       <defs>
        <path d="M 19.1875 8.296875 
L 53.609375 8.296875 
L 53.609375 0 
L 7.328125 0 
L 7.328125 8.296875 
Q 12.9375 14.109375 22.625 23.890625 
Q 32.328125 33.6875 34.8125 36.53125 
Q 39.546875 41.84375 41.421875 45.53125 
Q 43.3125 49.21875 43.3125 52.78125 
Q 43.3125 58.59375 39.234375 62.25 
Q 35.15625 65.921875 28.609375 65.921875 
Q 23.96875 65.921875 18.8125 64.3125 
Q 13.671875 62.703125 7.8125 59.421875 
L 7.8125 69.390625 
Q 13.765625 71.78125 18.9375 73 
Q 24.125 74.21875 28.421875 74.21875 
Q 39.75 74.21875 46.484375 68.546875 
Q 53.21875 62.890625 53.21875 53.421875 
Q 53.21875 48.921875 51.53125 44.890625 
Q 49.859375 40.875 45.40625 35.40625 
Q 44.1875 33.984375 37.640625 27.21875 
Q 31.109375 20.453125 19.1875 8.296875 
z
" id="DejaVuSans-50"/>
       </defs>
       <use xlink:href="#DejaVuSans-50"/>
       <use x="63.623047" xlink:href="#DejaVuSans-46"/>
       <use x="95.410156" xlink:href="#DejaVuSans-48"/>
      </g>
     </g>
    </g>
    <g id="xtick_5">
     <g id="line2d_5">
      <g>
       <use style="stroke:#000000;stroke-width:0.8;" x="317.482813" xlink:href="#m28a57807c2" y="131.038125"/>
      </g>
     </g>
     <g id="text_5">
      <!-- 2.5 -->
      <g transform="translate(309.53125 145.636562)scale(0.1 -0.1)">
       <use xlink:href="#DejaVuSans-50"/>
       <use x="63.623047" xlink:href="#DejaVuSans-46"/>
       <use x="95.410156" xlink:href="#DejaVuSans-53"/>
      </g>
     </g>
    </g>
    <g id="xtick_6">
     <g id="line2d_6">
      <g>
       <use style="stroke:#000000;stroke-width:0.8;" x="373.282812" xlink:href="#m28a57807c2" y="131.038125"/>
      </g>
     </g>
     <g id="text_6">
      <!-- 3.0 -->
      <g transform="translate(365.33125 145.636562)scale(0.1 -0.1)">
       <defs>
        <path d="M 40.578125 39.3125 
Q 47.65625 37.796875 51.625 33 
Q 55.609375 28.21875 55.609375 21.1875 
Q 55.609375 10.40625 48.1875 4.484375 
Q 40.765625 -1.421875 27.09375 -1.421875 
Q 22.515625 -1.421875 17.65625 -0.515625 
Q 12.796875 0.390625 7.625 2.203125 
L 7.625 11.71875 
Q 11.71875 9.328125 16.59375 8.109375 
Q 21.484375 6.890625 26.8125 6.890625 
Q 36.078125 6.890625 40.9375 10.546875 
Q 45.796875 14.203125 45.796875 21.1875 
Q 45.796875 27.640625 41.28125 31.265625 
Q 36.765625 34.90625 28.71875 34.90625 
L 20.21875 34.90625 
L 20.21875 43.015625 
L 29.109375 43.015625 
Q 36.375 43.015625 40.234375 45.921875 
Q 44.09375 48.828125 44.09375 54.296875 
Q 44.09375 59.90625 40.109375 62.90625 
Q 36.140625 65.921875 28.71875 65.921875 
Q 24.65625 65.921875 20.015625 65.03125 
Q 15.375 64.15625 9.8125 62.3125 
L 9.8125 71.09375 
Q 15.4375 72.65625 20.34375 73.4375 
Q 25.25 74.21875 29.59375 74.21875 
Q 40.828125 74.21875 47.359375 69.109375 
Q 53.90625 64.015625 53.90625 55.328125 
Q 53.90625 49.265625 50.4375 45.09375 
Q 46.96875 40.921875 40.578125 39.3125 
z
" id="DejaVuSans-51"/>
       </defs>
       <use xlink:href="#DejaVuSans-51"/>
       <use x="63.623047" xlink:href="#DejaVuSans-46"/>
       <use x="95.410156" xlink:href="#DejaVuSans-48"/>
      </g>
     </g>
    </g>
   </g>
   <g id="matplotlib.axis_2">
    <g id="ytick_1">
     <g id="line2d_7">
      <defs>
       <path d="M 0 0 
L -3.5 0 
" id="m254d52ebb8" style="stroke:#000000;stroke-width:0.8;"/>
      </defs>
      <g>
       <use style="stroke:#000000;stroke-width:0.8;" x="38.482813" xlink:href="#m254d52ebb8" y="239.758125"/>
      </g>
     </g>
     <g id="text_7">
      <!-- −2.0 -->
      <g transform="translate(7.2 243.557344)scale(0.1 -0.1)">
       <defs>
        <path d="M 10.59375 35.5 
L 73.1875 35.5 
L 73.1875 27.203125 
L 10.59375 27.203125 
z
" id="DejaVuSans-8722"/>
       </defs>
       <use xlink:href="#DejaVuSans-8722"/>
       <use x="83.789062" xlink:href="#DejaVuSans-50"/>
       <use x="147.412109" xlink:href="#DejaVuSans-46"/>
       <use x="179.199219" xlink:href="#DejaVuSans-48"/>
      </g>
     </g>
    </g>
    <g id="ytick_2">
     <g id="line2d_8">
      <g>
       <use style="stroke:#000000;stroke-width:0.8;" x="38.482813" xlink:href="#m254d52ebb8" y="212.578125"/>
      </g>
     </g>
     <g id="text_8">
      <!-- −1.5 -->
      <g transform="translate(7.2 216.377344)scale(0.1 -0.1)">
       <use xlink:href="#DejaVuSans-8722"/>
       <use x="83.789062" xlink:href="#DejaVuSans-49"/>
       <use x="147.412109" xlink:href="#DejaVuSans-46"/>
       <use x="179.199219" xlink:href="#DejaVuSans-53"/>
      </g>
     </g>
    </g>
    <g id="ytick_3">
     <g id="line2d_9">
      <g>
       <use style="stroke:#000000;stroke-width:0.8;" x="38.482813" xlink:href="#m254d52ebb8" y="185.398125"/>
      </g>
     </g>
     <g id="text_9">
      <!-- −1.0 -->
      <g transform="translate(7.2 189.197344)scale(0.1 -0.1)">
       <use xlink:href="#DejaVuSans-8722"/>
       <use x="83.789062" xlink:href="#DejaVuSans-49"/>
       <use x="147.412109" xlink:href="#DejaVuSans-46"/>
       <use x="179.199219" xlink:href="#DejaVuSans-48"/>
      </g>
     </g>
    </g>
    <g id="ytick_4">
     <g id="line2d_10">
      <g>
       <use style="stroke:#000000;stroke-width:0.8;" x="38.482813" xlink:href="#m254d52ebb8" y="158.218125"/>
      </g>
     </g>
     <g id="text_10">
      <!-- −0.5 -->
      <g transform="translate(7.2 162.017344)scale(0.1 -0.1)">
       <use xlink:href="#DejaVuSans-8722"/>
       <use x="83.789062" xlink:href="#DejaVuSans-48"/>
       <use x="147.412109" xlink:href="#DejaVuSans-46"/>
       <use x="179.199219" xlink:href="#DejaVuSans-53"/>
      </g>
     </g>
    </g>
    <g id="ytick_5">
     <g id="line2d_11">
      <g>
       <use style="stroke:#000000;stroke-width:0.8;" x="38.482813" xlink:href="#m254d52ebb8" y="131.038125"/>
      </g>
     </g>
     <g id="text_11">
      <!-- 0.0 -->
      <g transform="translate(15.579688 134.837344)scale(0.1 -0.1)">
       <use xlink:href="#DejaVuSans-48"/>
       <use x="63.623047" xlink:href="#DejaVuSans-46"/>
       <use x="95.410156" xlink:href="#DejaVuSans-48"/>
      </g>
     </g>
    </g>
    <g id="ytick_6">
     <g id="line2d_12">
      <g>
       <use style="stroke:#000000;stroke-width:0.8;" x="38.482813" xlink:href="#m254d52ebb8" y="103.858125"/>
      </g>
     </g>
     <g id="text_12">
      <!-- 0.5 -->
      <g transform="translate(15.579688 107.657344)scale(0.1 -0.1)">
       <use xlink:href="#DejaVuSans-48"/>
       <use x="63.623047" xlink:href="#DejaVuSans-46"/>
       <use x="95.410156" xlink:href="#DejaVuSans-53"/>
      </g>
     </g>
    </g>
    <g id="ytick_7">
     <g id="line2d_13">
      <g>
       <use style="stroke:#000000;stroke-width:0.8;" x="38.482813" xlink:href="#m254d52ebb8" y="76.678125"/>
      </g>
     </g>
     <g id="text_13">
      <!-- 1.0 -->
      <g transform="translate(15.579688 80.477344)scale(0.1 -0.1)">
       <use xlink:href="#DejaVuSans-49"/>
       <use x="63.623047" xlink:href="#DejaVuSans-46"/>
       <use x="95.410156" xlink:href="#DejaVuSans-48"/>
      </g>
     </g>
    </g>
    <g id="ytick_8">
     <g id="line2d_14">
      <g>
       <use style="stroke:#000000;stroke-width:0.8;" x="38.482813" xlink:href="#m254d52ebb8" y="49.498125"/>
      </g>
     </g>
     <g id="text_14">
      <!-- 1.5 -->
      <g transform="translate(15.579688 53.297344)scale(0.1 -0.1)">
       <use xlink:href="#DejaVuSans-49"/>
       <use x="63.623047" xlink:href="#DejaVuSans-46"/>
       <use x="95.410156" xlink:href="#DejaVuSans-53"/>
      </g>
     </g>
    </g>
    <g id="ytick_9">
     <g id="line2d_15">
      <g>
       <use style="stroke:#000000;stroke-width:0.8;" x="38.482813" xlink:href="#m254d52ebb8" y="22.318125"/>
      </g>
     </g>
     <g id="text_15">
      <!-- 2.0 -->
      <g transform="translate(15.579688 26.117344)scale(0.1 -0.1)">
       <use xlink:href="#DejaVuSans-50"/>
       <use x="63.623047" xlink:href="#DejaVuSans-46"/>
       <use x="95.410156" xlink:href="#DejaVuSans-48"/>
      </g>
     </g>
    </g>
   </g>
   <g id="line2d_16">
    <path clip-path="url(#p661da0555b)" d="M 38.482813 185.398125 
L 41.864631 183.750852 
L 45.246449 182.10358 
L 48.628267 180.456307 
L 52.010085 178.809034 
L 55.391903 177.161761 
L 58.773722 175.514489 
L 62.15554 173.867216 
L 65.537358 172.219943 
L 68.919176 170.57267 
L 72.300994 168.925398 
L 75.682813 167.278125 
L 79.064631 165.630852 
L 82.446449 163.98358 
L 85.828267 162.336307 
L 89.210085 160.689034 
L 92.591903 159.041761 
L 95.973722 157.394489 
L 99.35554 155.747216 
L 102.737358 154.099943 
L 106.119176 152.45267 
L 109.500994 150.805398 
L 112.882812 149.158125 
L 116.264631 147.510852 
L 119.646449 145.86358 
L 123.028267 144.216307 
L 126.410085 142.569034 
L 129.791903 140.921761 
L 133.173722 139.274489 
L 136.55554 137.627216 
L 139.937358 135.979943 
L 143.319176 134.33267 
L 146.700994 132.685398 
L 150.082812 131.038125 
L 153.464631 129.390852 
L 156.846449 127.74358 
L 160.228267 126.096307 
L 163.610085 124.449034 
L 166.991903 122.801761 
L 170.373722 121.154489 
L 173.75554 119.507216 
L 177.137358 117.859943 
L 180.519176 116.21267 
L 183.900994 114.565398 
L 187.282813 112.918125 
L 190.664631 111.270852 
L 194.046449 109.62358 
L 197.428267 107.976307 
L 200.810085 106.329034 
L 204.191903 104.681761 
L 207.573722 103.034489 
L 210.95554 101.387216 
L 214.337358 99.739943 
L 217.719176 98.09267 
L 221.100994 96.445398 
L 224.482812 94.798125 
L 227.864631 93.150852 
L 231.246449 91.50358 
L 234.628267 89.856307 
L 238.010085 88.209034 
L 241.391903 86.561761 
L 244.773722 84.914489 
L 248.15554 83.267216 
L 251.537358 81.619943 
L 254.919176 79.97267 
L 258.300994 78.325398 
L 261.682813 76.678125 
L 265.064631 75.030852 
L 268.446449 73.38358 
L 271.828267 71.736307 
L 275.210085 70.089034 
L 278.591903 68.441761 
L 281.973722 66.794489 
L 285.35554 65.147216 
L 288.737358 63.499943 
L 292.119176 61.85267 
L 295.500994 60.205398 
L 298.882812 58.558125 
L 302.264631 56.910852 
L 305.646449 55.26358 
L 309.028267 53.616307 
L 312.410085 51.969034 
L 315.791903 50.321761 
L 319.173722 48.674489 
L 322.55554 47.027216 
L 325.937358 45.379943 
L 329.319176 43.73267 
L 332.700994 42.085398 
L 336.082813 40.438125 
L 339.464631 38.790852 
L 342.846449 37.14358 
L 346.228267 35.496307 
L 349.610085 33.849034 
L 352.991903 32.201761 
L 356.373722 30.554489 
L 359.75554 28.907216 
L 363.137358 27.259943 
L 366.519176 25.61267 
L 369.900994 23.965398 
L 373.282812 22.318125 
" style="fill:none;stroke:#1f77b4;stroke-linecap:square;stroke-width:1.5;"/>
   </g>
   <g id="line2d_17">
    <path clip-path="url(#p661da0555b)" d="M 38.482813 203.518125 
L 41.864631 198.253921 
L 45.246449 194.664824 
L 48.628267 191.518334 
L 52.010085 188.628707 
L 55.391903 185.916197 
L 58.773722 183.336963 
L 62.15554 180.863532 
L 65.537358 178.477209 
L 68.919176 176.164517 
L 72.300994 173.915329 
L 75.682813 171.721777 
L 79.064631 169.577592 
L 82.446449 167.477672 
L 85.828267 165.417793 
L 89.210085 163.394407 
L 92.591903 161.404491 
L 95.973722 159.445449 
L 99.35554 157.515024 
L 102.737358 155.61124 
L 106.119176 153.732355 
L 109.500994 151.876821 
L 112.882812 150.043255 
L 116.264631 148.230414 
L 119.646449 146.437179 
L 123.028267 144.662532 
L 126.410085 142.905549 
L 129.791903 141.165384 
L 133.173722 139.44126 
L 136.55554 137.732466 
L 139.937358 136.038343 
L 143.319176 134.358282 
L 146.700994 132.691718 
L 150.082812 131.038125 
L 153.464631 129.397014 
L 156.846449 127.767929 
L 160.228267 126.150439 
L 163.610085 124.544145 
L 166.991903 122.94867 
L 170.373722 121.363658 
L 173.75554 119.788774 
L 177.137358 118.223705 
L 180.519176 116.66815 
L 183.900994 115.121828 
L 187.282813 113.584471 
L 190.664631 112.055826 
L 194.046449 110.53565 
L 197.428267 109.023714 
L 200.810085 107.519799 
L 204.191903 106.023698 
L 207.573722 104.535211 
L 210.95554 103.054149 
L 214.337358 101.580329 
L 217.719176 100.113579 
L 221.100994 98.653731 
L 224.482812 97.200627 
L 227.864631 95.754113 
L 231.246449 94.314043 
L 234.628267 92.880276 
L 238.010085 91.452675 
L 241.391903 90.031111 
L 244.773722 88.615459 
L 248.15554 87.205597 
L 251.537358 85.801408 
L 254.919176 84.402781 
L 258.300994 83.009607 
L 261.682813 81.621781 
L 265.064631 80.239202 
L 268.446449 78.861773 
L 271.828267 77.489398 
L 275.210085 76.121988 
L 278.591903 74.759452 
L 281.973722 73.401706 
L 285.35554 72.048666 
L 288.737358 70.700252 
L 292.119176 69.356387 
L 295.500994 68.016993 
L 298.882812 66.681998 
L 302.264631 65.351331 
L 305.646449 64.024921 
L 309.028267 62.702703 
L 312.410085 61.384611 
L 315.791903 60.07058 
L 319.173722 58.76055 
L 322.55554 57.45446 
L 325.937358 56.152251 
L 329.319176 54.853867 
L 332.700994 53.559252 
L 336.082813 52.268351 
L 339.464631 50.981113 
L 342.846449 49.697486 
L 346.228267 48.417419 
L 349.610085 47.140865 
L 352.991903 45.867774 
L 356.373722 44.598102 
L 359.75554 43.331802 
L 363.137358 42.068829 
L 366.519176 40.809142 
L 369.900994 39.552697 
L 373.282812 38.299454 
" style="fill:none;stroke:#ff7f0e;stroke-linecap:square;stroke-width:1.5;"/>
   </g>
   <g id="line2d_18">
    <path clip-path="url(#p661da0555b)" d="M 38.482813 239.758125 
L 41.864631 220.832402 
L 45.246449 212.993111 
L 48.628267 206.977812 
L 52.010085 201.906679 
L 55.391903 197.438922 
L 58.773722 193.399761 
L 62.15554 189.685369 
L 65.537358 186.228097 
L 68.919176 182.980957 
L 72.300994 179.909735 
L 75.682813 176.988604 
L 79.064631 174.197498 
L 82.446449 171.520461 
L 85.828267 168.944555 
L 89.210085 166.459116 
L 92.591903 164.055234 
L 95.973722 161.725371 
L 99.35554 159.463084 
L 102.737358 157.262812 
L 106.119176 155.11972 
L 109.500994 153.029568 
L 112.882812 150.988617 
L 116.264631 148.993547 
L 119.646449 147.041397 
L 123.028267 145.129511 
L 126.410085 143.255495 
L 129.791903 141.417185 
L 133.173722 139.612613 
L 136.55554 137.839989 
L 139.937358 136.097672 
L 143.319176 134.38416 
L 146.700994 132.69807 
L 150.082812 131.038125 
L 153.464631 129.403146 
L 156.846449 127.792039 
L 160.228267 126.203788 
L 163.610085 124.637448 
L 166.991903 123.092135 
L 170.373722 121.567024 
L 173.75554 120.061344 
L 177.137358 118.574371 
L 180.519176 117.105423 
L 183.900994 115.653862 
L 187.282813 114.219082 
L 190.664631 112.800517 
L 194.046449 111.397628 
L 197.428267 110.009907 
L 200.810085 108.636871 
L 204.191903 107.278066 
L 207.573722 105.933056 
L 210.95554 104.60143 
L 214.337358 103.282797 
L 217.719176 101.976784 
L 221.100994 100.683034 
L 224.482812 99.401209 
L 227.864631 98.130984 
L 231.246449 96.872052 
L 234.628267 95.624115 
L 238.010085 94.38689 
L 241.391903 93.160107 
L 244.773722 91.943505 
L 248.15554 90.736835 
L 251.537358 89.539858 
L 254.919176 88.352343 
L 258.300994 87.17407 
L 261.682813 86.004826 
L 265.064631 84.844408 
L 268.446449 83.692617 
L 271.828267 82.549265 
L 275.210085 81.414168 
L 278.591903 80.28715 
L 281.973722 79.168042 
L 285.35554 78.056679 
L 288.737358 76.952902 
L 292.119176 75.856558 
L 295.500994 74.767499 
L 298.882812 73.685582 
L 302.264631 72.610667 
L 305.646449 71.542622 
L 309.028267 70.481315 
L 312.410085 69.42662 
L 315.791903 68.378416 
L 319.173722 67.336585 
L 322.55554 66.301011 
L 325.937358 65.271583 
L 329.319176 64.248192 
L 332.700994 63.230735 
L 336.082813 62.219108 
L 339.464631 61.213214 
L 342.846449 60.212954 
L 346.228267 59.218236 
L 349.610085 58.228969 
L 352.991903 57.245064 
L 356.373722 56.266435 
L 359.75554 55.292997 
L 363.137358 54.32467 
L 366.519176 53.361373 
L 369.900994 52.403028 
L 373.282812 51.449561 
" style="fill:none;stroke:#2ca02c;stroke-linecap:square;stroke-width:1.5;"/>
   </g>
   <g id="line2d_19">
    <path clip-path="url(#p661da0555b)" d="M 42.636824 253.837031 
L 45.246449 240.59129 
L 48.628267 229.081715 
L 52.010085 220.178333 
L 55.391903 212.817612 
L 58.773722 206.491065 
L 62.15554 200.912411 
L 65.537358 195.9031 
L 68.919176 191.343613 
L 72.300994 187.149678 
L 75.682813 183.259454 
L 79.064631 179.626103 
L 82.446449 176.213227 
L 85.828267 172.991928 
L 89.210085 169.938849 
L 92.591903 167.034819 
L 95.973722 164.263891 
L 99.35554 161.612645 
L 102.737358 159.069673 
L 106.119176 156.625187 
L 109.500994 154.270723 
L 112.882812 151.998905 
L 116.264631 149.803266 
L 119.646449 147.678099 
L 123.028267 145.618342 
L 126.410085 143.619482 
L 129.791903 141.677477 
L 133.173722 139.78869 
L 136.55554 137.949839 
L 139.937358 136.157948 
L 143.319176 134.410309 
L 146.700994 132.704455 
L 150.082812 131.038125 
L 153.464631 129.409247 
L 156.846449 127.815914 
L 160.228267 126.256367 
L 163.610085 124.728979 
L 166.991903 123.232246 
L 170.373722 121.764769 
L 173.75554 120.325247 
L 177.137358 118.912468 
L 180.519176 117.525301 
L 183.900994 116.162688 
L 187.282813 114.823639 
L 190.664631 113.507224 
L 194.046449 112.212569 
L 197.428267 110.938854 
L 200.810085 109.685305 
L 204.191903 108.451193 
L 207.573722 107.235828 
L 210.95554 106.038559 
L 214.337358 104.858769 
L 217.719176 103.695875 
L 221.100994 102.549323 
L 224.482812 101.418586 
L 227.864631 100.303165 
L 231.246449 99.202584 
L 234.628267 98.11639 
L 238.010085 97.044152 
L 241.391903 95.98546 
L 244.773722 94.939919 
L 248.15554 93.907155 
L 251.537358 92.88681 
L 254.919176 91.878541 
L 258.300994 90.882019 
L 261.682813 89.89693 
L 265.064631 88.922972 
L 268.446449 87.959857 
L 271.828267 87.007306 
L 275.210085 86.065054 
L 278.591903 85.132843 
L 281.973722 84.210429 
L 285.35554 83.297574 
L 288.737358 82.394049 
L 292.119176 81.499636 
L 295.500994 80.614123 
L 298.882812 79.737306 
L 302.264631 78.868989 
L 305.646449 78.008981 
L 309.028267 77.157099 
L 312.410085 76.313166 
L 315.791903 75.477012 
L 319.173722 74.648471 
L 322.55554 73.827383 
L 325.937358 73.013595 
L 329.319176 72.206955 
L 332.700994 71.407319 
L 336.082813 70.614548 
L 339.464631 69.828504 
L 342.846449 69.049057 
L 346.228267 68.276079 
L 349.610085 67.509445 
L 352.991903 66.749036 
L 356.373722 65.994734 
L 359.75554 65.246427 
L 363.137358 64.504005 
L 366.519176 63.76736 
L 369.900994 63.036389 
L 373.282812 62.310992 
" style="fill:none;stroke:#d62728;stroke-linecap:square;stroke-width:1.5;"/>
   </g>
   <g id="line2d_20">
    <path clip-path="url(#p661da0555b)" d="M 50.261109 253.837031 
L 52.010085 245.749315 
L 55.391903 233.619231 
L 58.773722 223.708231 
L 62.15554 215.3286 
L 65.537358 208.069834 
L 68.919176 201.667148 
L 72.300994 195.93975 
L 75.682813 190.758689 
L 79.064631 186.028751 
L 82.446449 181.677629 
L 85.828267 177.64912 
L 89.210085 173.898667 
L 92.591903 170.390353 
L 95.973722 167.094799 
L 99.35554 163.987667 
L 102.737358 161.048573 
L 106.119176 158.26027 
L 109.500994 155.608036 
L 112.882812 153.079208 
L 116.264631 150.66281 
L 119.646449 148.34927 
L 123.028267 146.130186 
L 126.410085 143.998148 
L 129.791903 141.946584 
L 133.173722 139.969639 
L 136.55554 138.062075 
L 139.937358 136.219186 
L 143.319176 134.436732 
L 146.700994 132.710872 
L 150.082812 131.038125 
L 153.464631 129.415318 
L 156.846449 127.839555 
L 160.228267 126.308187 
L 163.610085 124.818778 
L 166.991903 123.369092 
L 170.373722 121.957065 
L 173.75554 120.580789 
L 177.137358 119.238498 
L 180.519176 117.928556 
L 183.900994 116.649438 
L 187.282813 115.399728 
L 190.664631 114.178103 
L 194.046449 112.98333 
L 197.428267 111.814252 
L 200.810085 110.669789 
L 204.191903 109.548925 
L 207.573722 108.450705 
L 210.95554 107.374235 
L 214.337358 106.318667 
L 217.719176 105.283208 
L 221.100994 104.267103 
L 224.482812 103.269644 
L 227.864631 102.290158 
L 231.246449 101.328009 
L 234.628267 100.382594 
L 238.010085 99.453341 
L 241.391903 98.539706 
L 244.773722 97.641173 
L 248.15554 96.757251 
L 251.537358 95.887472 
L 254.919176 95.031392 
L 258.300994 94.188584 
L 261.682813 93.358644 
L 265.064631 92.541185 
L 268.446449 91.735837 
L 271.828267 90.942246 
L 275.210085 90.160075 
L 278.591903 89.388998 
L 281.973722 88.628706 
L 285.35554 87.878901 
L 288.737358 87.139298 
L 292.119176 86.409622 
L 295.500994 85.689612 
L 298.882812 84.979013 
L 302.264631 84.277584 
L 305.646449 83.585091 
L 309.028267 82.901308 
L 312.410085 82.22602 
L 315.791903 81.559018 
L 319.173722 80.900101 
L 322.55554 80.249075 
L 325.937358 79.605754 
L 329.319176 78.969957 
L 332.700994 78.341511 
L 336.082813 77.720247 
L 339.464631 77.106003 
L 342.846449 76.498622 
L 346.228267 75.897953 
L 349.610085 75.303849 
L 352.991903 74.716168 
L 356.373722 74.134772 
L 359.75554 73.559528 
L 363.137358 72.990308 
L 366.519176 72.426987 
L 369.900994 71.869444 
L 373.282812 71.317561 
" style="fill:none;stroke:#000000;stroke-dasharray:5.55,2.4;stroke-dashoffset:0;stroke-width:1.5;"/>
   </g>
   <g id="patch_3">
    <path d="M 38.482813 239.758125 
L 38.482813 22.318125 
" style="fill:none;stroke:#000000;stroke-linecap:square;stroke-linejoin:miter;stroke-width:0.8;"/>
   </g>
   <g id="patch_4">
    <path d="M 373.282813 239.758125 
L 373.282813 22.318125 
" style="fill:none;"/>
   </g>
   <g id="patch_5">
    <path d="M 38.482813 131.038125 
L 373.282812 131.038125 
" style="fill:none;stroke:#000000;stroke-linecap:square;stroke-linejoin:miter;stroke-width:0.8;"/>
   </g>
   <g id="patch_6">
    <path d="M 38.482813 22.318125 
L 373.282812 22.318125 
" style="fill:none;"/>
   </g>
   <g id="text_16">
    <!-- Tempered logarithm -->
    <g transform="translate(145.505 16.318125)scale(0.12 -0.12)">
     <defs>
      <path d="M -0.296875 72.90625 
L 61.375 72.90625 
L 61.375 64.59375 
L 35.5 64.59375 
L 35.5 0 
L 25.59375 0 
L 25.59375 64.59375 
L -0.296875 64.59375 
z
" id="DejaVuSans-84"/>
      <path d="M 56.203125 29.59375 
L 56.203125 25.203125 
L 14.890625 25.203125 
Q 15.484375 15.921875 20.484375 11.0625 
Q 25.484375 6.203125 34.421875 6.203125 
Q 39.59375 6.203125 44.453125 7.46875 
Q 49.3125 8.734375 54.109375 11.28125 
L 54.109375 2.78125 
Q 49.265625 0.734375 44.1875 -0.34375 
Q 39.109375 -1.421875 33.890625 -1.421875 
Q 20.796875 -1.421875 13.15625 6.1875 
Q 5.515625 13.8125 5.515625 26.8125 
Q 5.515625 40.234375 12.765625 48.109375 
Q 20.015625 56 32.328125 56 
Q 43.359375 56 49.78125 48.890625 
Q 56.203125 41.796875 56.203125 29.59375 
z
M 47.21875 32.234375 
Q 47.125 39.59375 43.09375 43.984375 
Q 39.0625 48.390625 32.421875 48.390625 
Q 24.90625 48.390625 20.390625 44.140625 
Q 15.875 39.890625 15.1875 32.171875 
z
" id="DejaVuSans-101"/>
      <path d="M 52 44.1875 
Q 55.375 50.25 60.0625 53.125 
Q 64.75 56 71.09375 56 
Q 79.640625 56 84.28125 50.015625 
Q 88.921875 44.046875 88.921875 33.015625 
L 88.921875 0 
L 79.890625 0 
L 79.890625 32.71875 
Q 79.890625 40.578125 77.09375 44.375 
Q 74.3125 48.1875 68.609375 48.1875 
Q 61.625 48.1875 57.5625 43.546875 
Q 53.515625 38.921875 53.515625 30.90625 
L 53.515625 0 
L 44.484375 0 
L 44.484375 32.71875 
Q 44.484375 40.625 41.703125 44.40625 
Q 38.921875 48.1875 33.109375 48.1875 
Q 26.21875 48.1875 22.15625 43.53125 
Q 18.109375 38.875 18.109375 30.90625 
L 18.109375 0 
L 9.078125 0 
L 9.078125 54.6875 
L 18.109375 54.6875 
L 18.109375 46.1875 
Q 21.1875 51.21875 25.484375 53.609375 
Q 29.78125 56 35.6875 56 
Q 41.65625 56 45.828125 52.96875 
Q 50 49.953125 52 44.1875 
z
" id="DejaVuSans-109"/>
      <path d="M 18.109375 8.203125 
L 18.109375 -20.796875 
L 9.078125 -20.796875 
L 9.078125 54.6875 
L 18.109375 54.6875 
L 18.109375 46.390625 
Q 20.953125 51.265625 25.265625 53.625 
Q 29.59375 56 35.59375 56 
Q 45.5625 56 51.78125 48.09375 
Q 58.015625 40.1875 58.015625 27.296875 
Q 58.015625 14.40625 51.78125 6.484375 
Q 45.5625 -1.421875 35.59375 -1.421875 
Q 29.59375 -1.421875 25.265625 0.953125 
Q 20.953125 3.328125 18.109375 8.203125 
z
M 48.6875 27.296875 
Q 48.6875 37.203125 44.609375 42.84375 
Q 40.53125 48.484375 33.40625 48.484375 
Q 26.265625 48.484375 22.1875 42.84375 
Q 18.109375 37.203125 18.109375 27.296875 
Q 18.109375 17.390625 22.1875 11.75 
Q 26.265625 6.109375 33.40625 6.109375 
Q 40.53125 6.109375 44.609375 11.75 
Q 48.6875 17.390625 48.6875 27.296875 
z
" id="DejaVuSans-112"/>
      <path d="M 41.109375 46.296875 
Q 39.59375 47.171875 37.8125 47.578125 
Q 36.03125 48 33.890625 48 
Q 26.265625 48 22.1875 43.046875 
Q 18.109375 38.09375 18.109375 28.8125 
L 18.109375 0 
L 9.078125 0 
L 9.078125 54.6875 
L 18.109375 54.6875 
L 18.109375 46.1875 
Q 20.953125 51.171875 25.484375 53.578125 
Q 30.03125 56 36.53125 56 
Q 37.453125 56 38.578125 55.875 
Q 39.703125 55.765625 41.0625 55.515625 
z
" id="DejaVuSans-114"/>
      <path d="M 45.40625 46.390625 
L 45.40625 75.984375 
L 54.390625 75.984375 
L 54.390625 0 
L 45.40625 0 
L 45.40625 8.203125 
Q 42.578125 3.328125 38.25 0.953125 
Q 33.9375 -1.421875 27.875 -1.421875 
Q 17.96875 -1.421875 11.734375 6.484375 
Q 5.515625 14.40625 5.515625 27.296875 
Q 5.515625 40.1875 11.734375 48.09375 
Q 17.96875 56 27.875 56 
Q 33.9375 56 38.25 53.625 
Q 42.578125 51.265625 45.40625 46.390625 
z
M 14.796875 27.296875 
Q 14.796875 17.390625 18.875 11.75 
Q 22.953125 6.109375 30.078125 6.109375 
Q 37.203125 6.109375 41.296875 11.75 
Q 45.40625 17.390625 45.40625 27.296875 
Q 45.40625 37.203125 41.296875 42.84375 
Q 37.203125 48.484375 30.078125 48.484375 
Q 22.953125 48.484375 18.875 42.84375 
Q 14.796875 37.203125 14.796875 27.296875 
z
" id="DejaVuSans-100"/>
      <path id="DejaVuSans-32"/>
      <path d="M 9.421875 75.984375 
L 18.40625 75.984375 
L 18.40625 0 
L 9.421875 0 
z
" id="DejaVuSans-108"/>
      <path d="M 30.609375 48.390625 
Q 23.390625 48.390625 19.1875 42.75 
Q 14.984375 37.109375 14.984375 27.296875 
Q 14.984375 17.484375 19.15625 11.84375 
Q 23.34375 6.203125 30.609375 6.203125 
Q 37.796875 6.203125 41.984375 11.859375 
Q 46.1875 17.53125 46.1875 27.296875 
Q 46.1875 37.015625 41.984375 42.703125 
Q 37.796875 48.390625 30.609375 48.390625 
z
M 30.609375 56 
Q 42.328125 56 49.015625 48.375 
Q 55.71875 40.765625 55.71875 27.296875 
Q 55.71875 13.875 49.015625 6.21875 
Q 42.328125 -1.421875 30.609375 -1.421875 
Q 18.84375 -1.421875 12.171875 6.21875 
Q 5.515625 13.875 5.515625 27.296875 
Q 5.515625 40.765625 12.171875 48.375 
Q 18.84375 56 30.609375 56 
z
" id="DejaVuSans-111"/>
      <path d="M 45.40625 27.984375 
Q 45.40625 37.75 41.375 43.109375 
Q 37.359375 48.484375 30.078125 48.484375 
Q 22.859375 48.484375 18.828125 43.109375 
Q 14.796875 37.75 14.796875 27.984375 
Q 14.796875 18.265625 18.828125 12.890625 
Q 22.859375 7.515625 30.078125 7.515625 
Q 37.359375 7.515625 41.375 12.890625 
Q 45.40625 18.265625 45.40625 27.984375 
z
M 54.390625 6.78125 
Q 54.390625 -7.171875 48.1875 -13.984375 
Q 42 -20.796875 29.203125 -20.796875 
Q 24.46875 -20.796875 20.265625 -20.09375 
Q 16.0625 -19.390625 12.109375 -17.921875 
L 12.109375 -9.1875 
Q 16.0625 -11.328125 19.921875 -12.34375 
Q 23.78125 -13.375 27.78125 -13.375 
Q 36.625 -13.375 41.015625 -8.765625 
Q 45.40625 -4.15625 45.40625 5.171875 
L 45.40625 9.625 
Q 42.625 4.78125 38.28125 2.390625 
Q 33.9375 0 27.875 0 
Q 17.828125 0 11.671875 7.65625 
Q 5.515625 15.328125 5.515625 27.984375 
Q 5.515625 40.671875 11.671875 48.328125 
Q 17.828125 56 27.875 56 
Q 33.9375 56 38.28125 53.609375 
Q 42.625 51.21875 45.40625 46.390625 
L 45.40625 54.6875 
L 54.390625 54.6875 
z
" id="DejaVuSans-103"/>
      <path d="M 34.28125 27.484375 
Q 23.390625 27.484375 19.1875 25 
Q 14.984375 22.515625 14.984375 16.5 
Q 14.984375 11.71875 18.140625 8.90625 
Q 21.296875 6.109375 26.703125 6.109375 
Q 34.1875 6.109375 38.703125 11.40625 
Q 43.21875 16.703125 43.21875 25.484375 
L 43.21875 27.484375 
z
M 52.203125 31.203125 
L 52.203125 0 
L 43.21875 0 
L 43.21875 8.296875 
Q 40.140625 3.328125 35.546875 0.953125 
Q 30.953125 -1.421875 24.3125 -1.421875 
Q 15.921875 -1.421875 10.953125 3.296875 
Q 6 8.015625 6 15.921875 
Q 6 25.140625 12.171875 29.828125 
Q 18.359375 34.515625 30.609375 34.515625 
L 43.21875 34.515625 
L 43.21875 35.40625 
Q 43.21875 41.609375 39.140625 45 
Q 35.0625 48.390625 27.6875 48.390625 
Q 23 48.390625 18.546875 47.265625 
Q 14.109375 46.140625 10.015625 43.890625 
L 10.015625 52.203125 
Q 14.9375 54.109375 19.578125 55.046875 
Q 24.21875 56 28.609375 56 
Q 40.484375 56 46.34375 49.84375 
Q 52.203125 43.703125 52.203125 31.203125 
z
" id="DejaVuSans-97"/>
      <path d="M 9.421875 54.6875 
L 18.40625 54.6875 
L 18.40625 0 
L 9.421875 0 
z
M 9.421875 75.984375 
L 18.40625 75.984375 
L 18.40625 64.59375 
L 9.421875 64.59375 
z
" id="DejaVuSans-105"/>
      <path d="M 18.3125 70.21875 
L 18.3125 54.6875 
L 36.8125 54.6875 
L 36.8125 47.703125 
L 18.3125 47.703125 
L 18.3125 18.015625 
Q 18.3125 11.328125 20.140625 9.421875 
Q 21.96875 7.515625 27.59375 7.515625 
L 36.8125 7.515625 
L 36.8125 0 
L 27.59375 0 
Q 17.1875 0 13.234375 3.875 
Q 9.28125 7.765625 9.28125 18.015625 
L 9.28125 47.703125 
L 2.6875 47.703125 
L 2.6875 54.6875 
L 9.28125 54.6875 
L 9.28125 70.21875 
z
" id="DejaVuSans-116"/>
      <path d="M 54.890625 33.015625 
L 54.890625 0 
L 45.90625 0 
L 45.90625 32.71875 
Q 45.90625 40.484375 42.875 44.328125 
Q 39.84375 48.1875 33.796875 48.1875 
Q 26.515625 48.1875 22.3125 43.546875 
Q 18.109375 38.921875 18.109375 30.90625 
L 18.109375 0 
L 9.078125 0 
L 9.078125 75.984375 
L 18.109375 75.984375 
L 18.109375 46.1875 
Q 21.34375 51.125 25.703125 53.5625 
Q 30.078125 56 35.796875 56 
Q 45.21875 56 50.046875 50.171875 
Q 54.890625 44.34375 54.890625 33.015625 
z
" id="DejaVuSans-104"/>
     </defs>
     <use xlink:href="#DejaVuSans-84"/>
     <use x="44.083984" xlink:href="#DejaVuSans-101"/>
     <use x="105.607422" xlink:href="#DejaVuSans-109"/>
     <use x="203.019531" xlink:href="#DejaVuSans-112"/>
     <use x="266.496094" xlink:href="#DejaVuSans-101"/>
     <use x="328.019531" xlink:href="#DejaVuSans-114"/>
     <use x="366.882812" xlink:href="#DejaVuSans-101"/>
     <use x="428.40625" xlink:href="#DejaVuSans-100"/>
     <use x="491.882812" xlink:href="#DejaVuSans-32"/>
     <use x="523.669922" xlink:href="#DejaVuSans-108"/>
     <use x="551.453125" xlink:href="#DejaVuSans-111"/>
     <use x="612.634766" xlink:href="#DejaVuSans-103"/>
     <use x="676.111328" xlink:href="#DejaVuSans-97"/>
     <use x="737.390625" xlink:href="#DejaVuSans-114"/>
     <use x="778.503906" xlink:href="#DejaVuSans-105"/>
     <use x="806.287109" xlink:href="#DejaVuSans-116"/>
     <use x="845.496094" xlink:href="#DejaVuSans-104"/>
     <use x="908.875" xlink:href="#DejaVuSans-109"/>
    </g>
   </g>
   <g id="legend_1">
    <g id="patch_7">
     <path d="M 45.482813 103.70875 
L 118.404687 103.70875 
Q 120.404687 103.70875 120.404687 101.70875 
L 120.404687 29.318125 
Q 120.404687 27.318125 118.404687 27.318125 
L 45.482813 27.318125 
Q 43.482813 27.318125 43.482813 29.318125 
L 43.482813 101.70875 
Q 43.482813 103.70875 45.482813 103.70875 
z
" style="fill:#ffffff;opacity:0.8;stroke:#cccccc;stroke-linejoin:miter;"/>
    </g>
    <g id="line2d_21">
     <path d="M 47.482813 35.416562 
L 67.482812 35.416562 
" style="fill:none;stroke:#1f77b4;stroke-linecap:square;stroke-width:1.5;"/>
    </g>
    <g id="line2d_22"/>
    <g id="text_17">
     <!-- t = 0.00 -->
     <g transform="translate(75.482812 38.916562)scale(0.1 -0.1)">
      <defs>
       <path d="M 10.59375 45.40625 
L 73.1875 45.40625 
L 73.1875 37.203125 
L 10.59375 37.203125 
z
M 10.59375 25.484375 
L 73.1875 25.484375 
L 73.1875 17.1875 
L 10.59375 17.1875 
z
" id="DejaVuSans-61"/>
      </defs>
      <use xlink:href="#DejaVuSans-116"/>
      <use x="39.208984" xlink:href="#DejaVuSans-32"/>
      <use x="70.996094" xlink:href="#DejaVuSans-61"/>
      <use x="154.785156" xlink:href="#DejaVuSans-32"/>
      <use x="186.572266" xlink:href="#DejaVuSans-48"/>
      <use x="250.195312" xlink:href="#DejaVuSans-46"/>
      <use x="281.982422" xlink:href="#DejaVuSans-48"/>
      <use x="345.605469" xlink:href="#DejaVuSans-48"/>
     </g>
    </g>
    <g id="line2d_23">
     <path d="M 47.482813 50.094687 
L 67.482812 50.094687 
" style="fill:none;stroke:#ff7f0e;stroke-linecap:square;stroke-width:1.5;"/>
    </g>
    <g id="line2d_24"/>
    <g id="text_18">
     <!-- t = 0.25 -->
     <g transform="translate(75.482812 53.594687)scale(0.1 -0.1)">
      <use xlink:href="#DejaVuSans-116"/>
      <use x="39.208984" xlink:href="#DejaVuSans-32"/>
      <use x="70.996094" xlink:href="#DejaVuSans-61"/>
      <use x="154.785156" xlink:href="#DejaVuSans-32"/>
      <use x="186.572266" xlink:href="#DejaVuSans-48"/>
      <use x="250.195312" xlink:href="#DejaVuSans-46"/>
      <use x="281.982422" xlink:href="#DejaVuSans-50"/>
      <use x="345.605469" xlink:href="#DejaVuSans-53"/>
     </g>
    </g>
    <g id="line2d_25">
     <path d="M 47.482813 64.772812 
L 67.482812 64.772812 
" style="fill:none;stroke:#2ca02c;stroke-linecap:square;stroke-width:1.5;"/>
    </g>
    <g id="line2d_26"/>
    <g id="text_19">
     <!-- t = 0.50 -->
     <g transform="translate(75.482812 68.272812)scale(0.1 -0.1)">
      <use xlink:href="#DejaVuSans-116"/>
      <use x="39.208984" xlink:href="#DejaVuSans-32"/>
      <use x="70.996094" xlink:href="#DejaVuSans-61"/>
      <use x="154.785156" xlink:href="#DejaVuSans-32"/>
      <use x="186.572266" xlink:href="#DejaVuSans-48"/>
      <use x="250.195312" xlink:href="#DejaVuSans-46"/>
      <use x="281.982422" xlink:href="#DejaVuSans-53"/>
      <use x="345.605469" xlink:href="#DejaVuSans-48"/>
     </g>
    </g>
    <g id="line2d_27">
     <path d="M 47.482813 79.450938 
L 67.482812 79.450938 
" style="fill:none;stroke:#d62728;stroke-linecap:square;stroke-width:1.5;"/>
    </g>
    <g id="line2d_28"/>
    <g id="text_20">
     <!-- t = 0.75 -->
     <g transform="translate(75.482812 82.950938)scale(0.1 -0.1)">
      <defs>
       <path d="M 8.203125 72.90625 
L 55.078125 72.90625 
L 55.078125 68.703125 
L 28.609375 0 
L 18.3125 0 
L 43.21875 64.59375 
L 8.203125 64.59375 
z
" id="DejaVuSans-55"/>
      </defs>
      <use xlink:href="#DejaVuSans-116"/>
      <use x="39.208984" xlink:href="#DejaVuSans-32"/>
      <use x="70.996094" xlink:href="#DejaVuSans-61"/>
      <use x="154.785156" xlink:href="#DejaVuSans-32"/>
      <use x="186.572266" xlink:href="#DejaVuSans-48"/>
      <use x="250.195312" xlink:href="#DejaVuSans-46"/>
      <use x="281.982422" xlink:href="#DejaVuSans-55"/>
      <use x="345.605469" xlink:href="#DejaVuSans-53"/>
     </g>
    </g>
    <g id="line2d_29">
     <path d="M 47.482813 94.129063 
L 67.482812 94.129063 
" style="fill:none;stroke:#000000;stroke-dasharray:5.55,2.4;stroke-dashoffset:0;stroke-width:1.5;"/>
    </g>
    <g id="line2d_30"/>
    <g id="text_21">
     <!-- t = 1.00 -->
     <g transform="translate(75.482812 97.629063)scale(0.1 -0.1)">
      <use xlink:href="#DejaVuSans-116"/>
      <use x="39.208984" xlink:href="#DejaVuSans-32"/>
      <use x="70.996094" xlink:href="#DejaVuSans-61"/>
      <use x="154.785156" xlink:href="#DejaVuSans-32"/>
      <use x="186.572266" xlink:href="#DejaVuSans-49"/>
      <use x="250.195312" xlink:href="#DejaVuSans-46"/>
      <use x="281.982422" xlink:href="#DejaVuSans-48"/>
      <use x="345.605469" xlink:href="#DejaVuSans-48"/>
     </g>
    </g>
   </g>
  </g>
 </g>
 <defs>
  <clipPath id="p661da0555b">
   <rect height="217.44" width="334.8" x="38.482813" y="22.318125"/>
  </clipPath>
 </defs>
</svg>
