<?xml version="1.0" encoding="utf-8" standalone="no"?>
<!DOCTYPE svg PUBLIC "-//W3C//DTD SVG 1.1//EN"
  "http://www.w3.org/Graphics/SVG/1.1/DTD/svg11.dtd">
<!-- Created with matplotlib (https://matplotlib.org/) -->
<svg height="277.314375pt" version="1.1" viewBox="0 0 388.9625 277.314375" width="388.9625pt" xmlns="http://www.w3.org/2000/svg" xmlns:xlink="http://www.w3.org/1999/xlink">
 <metadata>
  <rdf:RDF xmlns:cc="http://creativecommons.org/ns#" xmlns:dc="http://purl.org/dc/elements/1.1/" xmlns:rdf="http://www.w3.org/1999/02/22-rdf-syntax-ns#">
   <cc:Work>
    <dc:type rdf:resource="http://purl.org/dc/dcmitype/StillImage"/>
    <dc:date>2021-10-25T13:00:29.542715</dc:date>
    <dc:format>image/svg+xml</dc:format>
    <dc:creator>
     <cc:Agent>
      <dc:title>Matplotlib v3.3.4, https://matplotlib.org/</dc:title>
     </cc:Agent>
    </dc:creator>
   </cc:Work>
  </rdf:RDF>
 </metadata>
 <defs>
  <style type="text/css">*{stroke-linecap:butt;stroke-linejoin:round;}</style>
 </defs>
 <g id="figure_1">
  <g id="patch_1">
   <path d="M 0 277.314375 
L 388.9625 277.314375 
L 388.9625 0 
L 0 0 
z
" style="fill:none;"/>
  </g>
  <g id="axes_1">
   <g id="patch_2">
    <path d="M 43.78125 239.758125 
L 378.58125 239.758125 
L 378.58125 22.318125 
L 43.78125 22.318125 
z
" style="fill:#ffffff;"/>
   </g>
   <g id="matplotlib.axis_1">
    <g id="xtick_1">
     <g id="line2d_1">
      <defs>
       <path d="M 0 0 
L 0 3.5 
" id="m347fcc0c16" style="stroke:#000000;stroke-width:0.8;"/>
      </defs>
      <g>
       <use style="stroke:#000000;stroke-width:0.8;" x="43.78125" xlink:href="#m347fcc0c16" y="239.758125"/>
      </g>
     </g>
     <g id="text_1">
      <!-- −2 -->
      <g transform="translate(36.410156 254.356562)scale(0.1 -0.1)">
       <defs>
        <path d="M 10.59375 35.5 
L 73.1875 35.5 
L 73.1875 27.203125 
L 10.59375 27.203125 
z
" id="DejaVuSans-8722"/>
        <path d="M 19.1875 8.296875 
L 53.609375 8.296875 
L 53.609375 0 
L 7.328125 0 
L 7.328125 8.296875 
Q 12.9375 14.109375 22.625 23.890625 
Q 32.328125 33.6875 34.8125 36.53125 
Q 39.546875 41.84375 41.421875 45.53125 
Q 43.3125 49.21875 43.3125 52.78125 
Q 43.3125 58.59375 39.234375 62.25 
Q 35.15625 65.921875 28.609375 65.921875 
Q 23.96875 65.921875 18.8125 64.3125 
Q 13.671875 62.703125 7.8125 59.421875 
L 7.8125 69.390625 
Q 13.765625 71.78125 18.9375 73 
Q 24.125 74.21875 28.421875 74.21875 
Q 39.75 74.21875 46.484375 68.546875 
Q 53.21875 62.890625 53.21875 53.421875 
Q 53.21875 48.921875 51.53125 44.890625 
Q 49.859375 40.875 45.40625 35.40625 
Q 44.1875 33.984375 37.640625 27.21875 
Q 31.109375 20.453125 19.1875 8.296875 
z
" id="DejaVuSans-50"/>
       </defs>
       <use xlink:href="#DejaVuSans-8722"/>
       <use x="83.789062" xlink:href="#DejaVuSans-50"/>
      </g>
     </g>
    </g>
    <g id="xtick_2">
     <g id="line2d_2">
      <g>
       <use style="stroke:#000000;stroke-width:0.8;" x="110.74125" xlink:href="#m347fcc0c16" y="239.758125"/>
      </g>
     </g>
     <g id="text_2">
      <!-- −1 -->
      <g transform="translate(103.370156 254.356562)scale(0.1 -0.1)">
       <defs>
        <path d="M 12.40625 8.296875 
L 28.515625 8.296875 
L 28.515625 63.921875 
L 10.984375 60.40625 
L 10.984375 69.390625 
L 28.421875 72.90625 
L 38.28125 72.90625 
L 38.28125 8.296875 
L 54.390625 8.296875 
L 54.390625 0 
L 12.40625 0 
z
" id="DejaVuSans-49"/>
       </defs>
       <use xlink:href="#DejaVuSans-8722"/>
       <use x="83.789062" xlink:href="#DejaVuSans-49"/>
      </g>
     </g>
    </g>
    <g id="xtick_3">
     <g id="line2d_3">
      <g>
       <use style="stroke:#000000;stroke-width:0.8;" x="177.70125" xlink:href="#m347fcc0c16" y="239.758125"/>
      </g>
     </g>
     <g id="text_3">
      <!-- 0 -->
      <g transform="translate(174.52 254.356562)scale(0.1 -0.1)">
       <defs>
        <path d="M 31.78125 66.40625 
Q 24.171875 66.40625 20.328125 58.90625 
Q 16.5 51.421875 16.5 36.375 
Q 16.5 21.390625 20.328125 13.890625 
Q 24.171875 6.390625 31.78125 6.390625 
Q 39.453125 6.390625 43.28125 13.890625 
Q 47.125 21.390625 47.125 36.375 
Q 47.125 51.421875 43.28125 58.90625 
Q 39.453125 66.40625 31.78125 66.40625 
z
M 31.78125 74.21875 
Q 44.046875 74.21875 50.515625 64.515625 
Q 56.984375 54.828125 56.984375 36.375 
Q 56.984375 17.96875 50.515625 8.265625 
Q 44.046875 -1.421875 31.78125 -1.421875 
Q 19.53125 -1.421875 13.0625 8.265625 
Q 6.59375 17.96875 6.59375 36.375 
Q 6.59375 54.828125 13.0625 64.515625 
Q 19.53125 74.21875 31.78125 74.21875 
z
" id="DejaVuSans-48"/>
       </defs>
       <use xlink:href="#DejaVuSans-48"/>
      </g>
     </g>
    </g>
    <g id="xtick_4">
     <g id="line2d_4">
      <g>
       <use style="stroke:#000000;stroke-width:0.8;" x="244.66125" xlink:href="#m347fcc0c16" y="239.758125"/>
      </g>
     </g>
     <g id="text_4">
      <!-- 1 -->
      <g transform="translate(241.48 254.356562)scale(0.1 -0.1)">
       <use xlink:href="#DejaVuSans-49"/>
      </g>
     </g>
    </g>
    <g id="xtick_5">
     <g id="line2d_5">
      <g>
       <use style="stroke:#000000;stroke-width:0.8;" x="311.62125" xlink:href="#m347fcc0c16" y="239.758125"/>
      </g>
     </g>
     <g id="text_5">
      <!-- 2 -->
      <g transform="translate(308.44 254.356562)scale(0.1 -0.1)">
       <use xlink:href="#DejaVuSans-50"/>
      </g>
     </g>
    </g>
    <g id="xtick_6">
     <g id="line2d_6">
      <g>
       <use style="stroke:#000000;stroke-width:0.8;" x="378.58125" xlink:href="#m347fcc0c16" y="239.758125"/>
      </g>
     </g>
     <g id="text_6">
      <!-- 3 -->
      <g transform="translate(375.4 254.356562)scale(0.1 -0.1)">
       <defs>
        <path d="M 40.578125 39.3125 
Q 47.65625 37.796875 51.625 33 
Q 55.609375 28.21875 55.609375 21.1875 
Q 55.609375 10.40625 48.1875 4.484375 
Q 40.765625 -1.421875 27.09375 -1.421875 
Q 22.515625 -1.421875 17.65625 -0.515625 
Q 12.796875 0.390625 7.625 2.203125 
L 7.625 11.71875 
Q 11.71875 9.328125 16.59375 8.109375 
Q 21.484375 6.890625 26.8125 6.890625 
Q 36.078125 6.890625 40.9375 10.546875 
Q 45.796875 14.203125 45.796875 21.1875 
Q 45.796875 27.640625 41.28125 31.265625 
Q 36.765625 34.90625 28.71875 34.90625 
L 20.21875 34.90625 
L 20.21875 43.015625 
L 29.109375 43.015625 
Q 36.375 43.015625 40.234375 45.921875 
Q 44.09375 48.828125 44.09375 54.296875 
Q 44.09375 59.90625 40.109375 62.90625 
Q 36.140625 65.921875 28.71875 65.921875 
Q 24.65625 65.921875 20.015625 65.03125 
Q 15.375 64.15625 9.8125 62.3125 
L 9.8125 71.09375 
Q 15.4375 72.65625 20.34375 73.4375 
Q 25.25 74.21875 29.59375 74.21875 
Q 40.828125 74.21875 47.359375 69.109375 
Q 53.90625 64.015625 53.90625 55.328125 
Q 53.90625 49.265625 50.4375 45.09375 
Q 46.96875 40.921875 40.578125 39.3125 
z
" id="DejaVuSans-51"/>
       </defs>
       <use xlink:href="#DejaVuSans-51"/>
      </g>
     </g>
    </g>
    <g id="text_7">
     <!-- Activation -->
     <g transform="translate(186.149219 268.034687)scale(0.1 -0.1)">
      <defs>
       <path d="M 34.1875 63.1875 
L 20.796875 26.90625 
L 47.609375 26.90625 
z
M 28.609375 72.90625 
L 39.796875 72.90625 
L 67.578125 0 
L 57.328125 0 
L 50.6875 18.703125 
L 17.828125 18.703125 
L 11.1875 0 
L 0.78125 0 
z
" id="DejaVuSans-65"/>
       <path d="M 48.78125 52.59375 
L 48.78125 44.1875 
Q 44.96875 46.296875 41.140625 47.34375 
Q 37.3125 48.390625 33.40625 48.390625 
Q 24.65625 48.390625 19.8125 42.84375 
Q 14.984375 37.3125 14.984375 27.296875 
Q 14.984375 17.28125 19.8125 11.734375 
Q 24.65625 6.203125 33.40625 6.203125 
Q 37.3125 6.203125 41.140625 7.25 
Q 44.96875 8.296875 48.78125 10.40625 
L 48.78125 2.09375 
Q 45.015625 0.34375 40.984375 -0.53125 
Q 36.96875 -1.421875 32.421875 -1.421875 
Q 20.0625 -1.421875 12.78125 6.34375 
Q 5.515625 14.109375 5.515625 27.296875 
Q 5.515625 40.671875 12.859375 48.328125 
Q 20.21875 56 33.015625 56 
Q 37.15625 56 41.109375 55.140625 
Q 45.0625 54.296875 48.78125 52.59375 
z
" id="DejaVuSans-99"/>
       <path d="M 18.3125 70.21875 
L 18.3125 54.6875 
L 36.8125 54.6875 
L 36.8125 47.703125 
L 18.3125 47.703125 
L 18.3125 18.015625 
Q 18.3125 11.328125 20.140625 9.421875 
Q 21.96875 7.515625 27.59375 7.515625 
L 36.8125 7.515625 
L 36.8125 0 
L 27.59375 0 
Q 17.1875 0 13.234375 3.875 
Q 9.28125 7.765625 9.28125 18.015625 
L 9.28125 47.703125 
L 2.6875 47.703125 
L 2.6875 54.6875 
L 9.28125 54.6875 
L 9.28125 70.21875 
z
" id="DejaVuSans-116"/>
       <path d="M 9.421875 54.6875 
L 18.40625 54.6875 
L 18.40625 0 
L 9.421875 0 
z
M 9.421875 75.984375 
L 18.40625 75.984375 
L 18.40625 64.59375 
L 9.421875 64.59375 
z
" id="DejaVuSans-105"/>
       <path d="M 2.984375 54.6875 
L 12.5 54.6875 
L 29.59375 8.796875 
L 46.6875 54.6875 
L 56.203125 54.6875 
L 35.6875 0 
L 23.484375 0 
z
" id="DejaVuSans-118"/>
       <path d="M 34.28125 27.484375 
Q 23.390625 27.484375 19.1875 25 
Q 14.984375 22.515625 14.984375 16.5 
Q 14.984375 11.71875 18.140625 8.90625 
Q 21.296875 6.109375 26.703125 6.109375 
Q 34.1875 6.109375 38.703125 11.40625 
Q 43.21875 16.703125 43.21875 25.484375 
L 43.21875 27.484375 
z
M 52.203125 31.203125 
L 52.203125 0 
L 43.21875 0 
L 43.21875 8.296875 
Q 40.140625 3.328125 35.546875 0.953125 
Q 30.953125 -1.421875 24.3125 -1.421875 
Q 15.921875 -1.421875 10.953125 3.296875 
Q 6 8.015625 6 15.921875 
Q 6 25.140625 12.171875 29.828125 
Q 18.359375 34.515625 30.609375 34.515625 
L 43.21875 34.515625 
L 43.21875 35.40625 
Q 43.21875 41.609375 39.140625 45 
Q 35.0625 48.390625 27.6875 48.390625 
Q 23 48.390625 18.546875 47.265625 
Q 14.109375 46.140625 10.015625 43.890625 
L 10.015625 52.203125 
Q 14.9375 54.109375 19.578125 55.046875 
Q 24.21875 56 28.609375 56 
Q 40.484375 56 46.34375 49.84375 
Q 52.203125 43.703125 52.203125 31.203125 
z
" id="DejaVuSans-97"/>
       <path d="M 30.609375 48.390625 
Q 23.390625 48.390625 19.1875 42.75 
Q 14.984375 37.109375 14.984375 27.296875 
Q 14.984375 17.484375 19.15625 11.84375 
Q 23.34375 6.203125 30.609375 6.203125 
Q 37.796875 6.203125 41.984375 11.859375 
Q 46.1875 17.53125 46.1875 27.296875 
Q 46.1875 37.015625 41.984375 42.703125 
Q 37.796875 48.390625 30.609375 48.390625 
z
M 30.609375 56 
Q 42.328125 56 49.015625 48.375 
Q 55.71875 40.765625 55.71875 27.296875 
Q 55.71875 13.875 49.015625 6.21875 
Q 42.328125 -1.421875 30.609375 -1.421875 
Q 18.84375 -1.421875 12.171875 6.21875 
Q 5.515625 13.875 5.515625 27.296875 
Q 5.515625 40.765625 12.171875 48.375 
Q 18.84375 56 30.609375 56 
z
" id="DejaVuSans-111"/>
       <path d="M 54.890625 33.015625 
L 54.890625 0 
L 45.90625 0 
L 45.90625 32.71875 
Q 45.90625 40.484375 42.875 44.328125 
Q 39.84375 48.1875 33.796875 48.1875 
Q 26.515625 48.1875 22.3125 43.546875 
Q 18.109375 38.921875 18.109375 30.90625 
L 18.109375 0 
L 9.078125 0 
L 9.078125 54.6875 
L 18.109375 54.6875 
L 18.109375 46.1875 
Q 21.34375 51.125 25.703125 53.5625 
Q 30.078125 56 35.796875 56 
Q 45.21875 56 50.046875 50.171875 
Q 54.890625 44.34375 54.890625 33.015625 
z
" id="DejaVuSans-110"/>
      </defs>
      <use xlink:href="#DejaVuSans-65"/>
      <use x="66.658203" xlink:href="#DejaVuSans-99"/>
      <use x="121.638672" xlink:href="#DejaVuSans-116"/>
      <use x="160.847656" xlink:href="#DejaVuSans-105"/>
      <use x="188.630859" xlink:href="#DejaVuSans-118"/>
      <use x="247.810547" xlink:href="#DejaVuSans-97"/>
      <use x="309.089844" xlink:href="#DejaVuSans-116"/>
      <use x="348.298828" xlink:href="#DejaVuSans-105"/>
      <use x="376.082031" xlink:href="#DejaVuSans-111"/>
      <use x="437.263672" xlink:href="#DejaVuSans-110"/>
     </g>
    </g>
   </g>
   <g id="matplotlib.axis_2">
    <g id="ytick_1">
     <g id="line2d_7">
      <defs>
       <path d="M 0 0 
L -3.5 0 
" id="m226d8d16b7" style="stroke:#000000;stroke-width:0.8;"/>
      </defs>
      <g>
       <use style="stroke:#000000;stroke-width:0.8;" x="43.78125" xlink:href="#m226d8d16b7" y="239.758125"/>
      </g>
     </g>
     <g id="text_8">
      <!-- 0.0 -->
      <g transform="translate(20.878125 243.557344)scale(0.1 -0.1)">
       <defs>
        <path d="M 10.6875 12.40625 
L 21 12.40625 
L 21 0 
L 10.6875 0 
z
" id="DejaVuSans-46"/>
       </defs>
       <use xlink:href="#DejaVuSans-48"/>
       <use x="63.623047" xlink:href="#DejaVuSans-46"/>
       <use x="95.410156" xlink:href="#DejaVuSans-48"/>
      </g>
     </g>
    </g>
    <g id="ytick_2">
     <g id="line2d_8">
      <g>
       <use style="stroke:#000000;stroke-width:0.8;" x="43.78125" xlink:href="#m226d8d16b7" y="196.270125"/>
      </g>
     </g>
     <g id="text_9">
      <!-- 0.5 -->
      <g transform="translate(20.878125 200.069344)scale(0.1 -0.1)">
       <defs>
        <path d="M 10.796875 72.90625 
L 49.515625 72.90625 
L 49.515625 64.59375 
L 19.828125 64.59375 
L 19.828125 46.734375 
Q 21.96875 47.46875 24.109375 47.828125 
Q 26.265625 48.1875 28.421875 48.1875 
Q 40.625 48.1875 47.75 41.5 
Q 54.890625 34.8125 54.890625 23.390625 
Q 54.890625 11.625 47.5625 5.09375 
Q 40.234375 -1.421875 26.90625 -1.421875 
Q 22.3125 -1.421875 17.546875 -0.640625 
Q 12.796875 0.140625 7.71875 1.703125 
L 7.71875 11.625 
Q 12.109375 9.234375 16.796875 8.0625 
Q 21.484375 6.890625 26.703125 6.890625 
Q 35.15625 6.890625 40.078125 11.328125 
Q 45.015625 15.765625 45.015625 23.390625 
Q 45.015625 31 40.078125 35.4375 
Q 35.15625 39.890625 26.703125 39.890625 
Q 22.75 39.890625 18.8125 39.015625 
Q 14.890625 38.140625 10.796875 36.28125 
z
" id="DejaVuSans-53"/>
       </defs>
       <use xlink:href="#DejaVuSans-48"/>
       <use x="63.623047" xlink:href="#DejaVuSans-46"/>
       <use x="95.410156" xlink:href="#DejaVuSans-53"/>
      </g>
     </g>
    </g>
    <g id="ytick_3">
     <g id="line2d_9">
      <g>
       <use style="stroke:#000000;stroke-width:0.8;" x="43.78125" xlink:href="#m226d8d16b7" y="152.782125"/>
      </g>
     </g>
     <g id="text_10">
      <!-- 1.0 -->
      <g transform="translate(20.878125 156.581344)scale(0.1 -0.1)">
       <use xlink:href="#DejaVuSans-49"/>
       <use x="63.623047" xlink:href="#DejaVuSans-46"/>
       <use x="95.410156" xlink:href="#DejaVuSans-48"/>
      </g>
     </g>
    </g>
    <g id="ytick_4">
     <g id="line2d_10">
      <g>
       <use style="stroke:#000000;stroke-width:0.8;" x="43.78125" xlink:href="#m226d8d16b7" y="109.294125"/>
      </g>
     </g>
     <g id="text_11">
      <!-- 1.5 -->
      <g transform="translate(20.878125 113.093344)scale(0.1 -0.1)">
       <use xlink:href="#DejaVuSans-49"/>
       <use x="63.623047" xlink:href="#DejaVuSans-46"/>
       <use x="95.410156" xlink:href="#DejaVuSans-53"/>
      </g>
     </g>
    </g>
    <g id="ytick_5">
     <g id="line2d_11">
      <g>
       <use style="stroke:#000000;stroke-width:0.8;" x="43.78125" xlink:href="#m226d8d16b7" y="65.806125"/>
      </g>
     </g>
     <g id="text_12">
      <!-- 2.0 -->
      <g transform="translate(20.878125 69.605344)scale(0.1 -0.1)">
       <use xlink:href="#DejaVuSans-50"/>
       <use x="63.623047" xlink:href="#DejaVuSans-46"/>
       <use x="95.410156" xlink:href="#DejaVuSans-48"/>
      </g>
     </g>
    </g>
    <g id="ytick_6">
     <g id="line2d_12">
      <g>
       <use style="stroke:#000000;stroke-width:0.8;" x="43.78125" xlink:href="#m226d8d16b7" y="22.318125"/>
      </g>
     </g>
     <g id="text_13">
      <!-- 2.5 -->
      <g transform="translate(20.878125 26.117344)scale(0.1 -0.1)">
       <use xlink:href="#DejaVuSans-50"/>
       <use x="63.623047" xlink:href="#DejaVuSans-46"/>
       <use x="95.410156" xlink:href="#DejaVuSans-53"/>
      </g>
     </g>
    </g>
    <g id="text_14">
     <!-- Loss -->
     <g transform="translate(14.798438 142.005312)rotate(-90)scale(0.1 -0.1)">
      <defs>
       <path d="M 9.8125 72.90625 
L 19.671875 72.90625 
L 19.671875 8.296875 
L 55.171875 8.296875 
L 55.171875 0 
L 9.8125 0 
z
" id="DejaVuSans-76"/>
       <path d="M 44.28125 53.078125 
L 44.28125 44.578125 
Q 40.484375 46.53125 36.375 47.5 
Q 32.28125 48.484375 27.875 48.484375 
Q 21.1875 48.484375 17.84375 46.4375 
Q 14.5 44.390625 14.5 40.28125 
Q 14.5 37.15625 16.890625 35.375 
Q 19.28125 33.59375 26.515625 31.984375 
L 29.59375 31.296875 
Q 39.15625 29.25 43.1875 25.515625 
Q 47.21875 21.78125 47.21875 15.09375 
Q 47.21875 7.46875 41.1875 3.015625 
Q 35.15625 -1.421875 24.609375 -1.421875 
Q 20.21875 -1.421875 15.453125 -0.5625 
Q 10.6875 0.296875 5.421875 2 
L 5.421875 11.28125 
Q 10.40625 8.6875 15.234375 7.390625 
Q 20.0625 6.109375 24.8125 6.109375 
Q 31.15625 6.109375 34.5625 8.28125 
Q 37.984375 10.453125 37.984375 14.40625 
Q 37.984375 18.0625 35.515625 20.015625 
Q 33.0625 21.96875 24.703125 23.78125 
L 21.578125 24.515625 
Q 13.234375 26.265625 9.515625 29.90625 
Q 5.8125 33.546875 5.8125 39.890625 
Q 5.8125 47.609375 11.28125 51.796875 
Q 16.75 56 26.8125 56 
Q 31.78125 56 36.171875 55.265625 
Q 40.578125 54.546875 44.28125 53.078125 
z
" id="DejaVuSans-115"/>
      </defs>
      <use xlink:href="#DejaVuSans-76"/>
      <use x="53.962891" xlink:href="#DejaVuSans-111"/>
      <use x="115.144531" xlink:href="#DejaVuSans-115"/>
      <use x="167.244141" xlink:href="#DejaVuSans-115"/>
     </g>
    </g>
   </g>
   <g id="line2d_13">
    <path clip-path="url(#p8e596a81d8)" d="M 43.78125 54.766427 
L 47.163068 58.623743 
L 50.544885 62.456838 
L 53.926703 66.26481 
L 57.30852 70.046696 
L 60.690338 73.801551 
L 64.072156 77.528371 
L 67.453973 81.226138 
L 70.835799 84.893858 
L 74.217617 88.530483 
L 77.599434 92.134977 
L 80.981252 95.706271 
L 84.363069 99.243298 
L 87.744887 102.745 
L 91.126705 106.210288 
L 94.508522 109.638074 
L 97.89034 113.027311 
L 101.272157 116.376909 
L 104.653975 119.685791 
L 108.035793 122.952929 
L 111.417614 126.177278 
L 114.799432 129.357789 
L 118.18125 132.493478 
L 121.563067 135.58337 
L 124.944885 138.626511 
L 128.326706 141.621978 
L 131.708524 144.568891 
L 135.090342 147.466398 
L 138.472159 150.313712 
L 141.853977 153.11006 
L 145.235794 155.854743 
L 148.617614 158.547102 
L 151.999432 161.186541 
L 155.381249 163.772511 
L 158.763069 166.304529 
L 162.144887 168.782195 
L 165.526704 171.205138 
L 168.908523 173.573077 
L 172.290341 175.885799 
L 175.672159 178.143154 
L 179.053977 180.345059 
L 182.435795 182.49152 
L 185.817614 184.582592 
L 189.199431 186.618402 
L 192.58125 188.599171 
L 195.963069 190.525153 
L 199.344886 192.396697 
L 202.726704 194.214211 
L 206.108524 195.978147 
L 209.490341 197.689054 
L 212.872159 199.347518 
L 216.253976 200.954176 
L 219.635794 202.509732 
L 223.017612 204.014923 
L 226.399433 205.470548 
L 229.781251 206.87745 
L 233.163069 208.236499 
L 236.544886 209.548613 
L 239.926704 210.814723 
L 243.308521 212.035819 
L 246.690339 213.212893 
L 250.072157 214.34696 
L 253.453974 215.43906 
L 256.835792 216.490258 
L 260.217617 217.501592 
L 263.599435 218.474153 
L 266.981253 219.409001 
L 270.36307 220.307226 
L 273.744888 221.169908 
L 277.126706 221.998108 
L 280.508523 222.792895 
L 283.890341 223.555346 
L 287.272158 224.286492 
L 290.653976 224.987372 
L 294.035794 225.659007 
L 297.417611 226.302412 
L 300.799429 226.918582 
L 304.181246 227.508476 
L 307.563072 228.073051 
L 310.94489 228.613243 
L 314.326707 229.129959 
L 317.708517 229.624088 
L 321.090343 230.096495 
L 324.472152 230.548031 
L 327.853978 230.97952 
L 331.235803 231.391742 
L 334.617613 231.785491 
L 337.999439 232.161503 
L 341.381248 232.520505 
L 344.763074 232.863214 
L 348.144883 233.19029 
L 351.526709 233.502418 
L 354.908519 233.800206 
L 358.290344 234.084272 
L 361.672154 234.355216 
L 365.05398 234.613607 
L 368.435789 234.859978 
L 371.817615 235.094862 
L 375.199424 235.318775 
L 378.58125 235.532193 
" style="fill:none;stroke:#000000;stroke-dasharray:5.55,2.4;stroke-dashoffset:0;stroke-width:1.5;"/>
   </g>
   <g id="line2d_14">
    <path clip-path="url(#p8e596a81d8)" d="M 43.78125 73.119501 
L 47.163068 76.310298 
L 50.544885 79.495101 
L 53.926703 82.672564 
L 57.30852 85.841919 
L 60.690338 89.002336 
L 64.072156 92.152365 
L 67.453973 95.29105 
L 70.835799 98.41748 
L 74.217617 101.530276 
L 77.599434 104.628172 
L 80.981252 107.71009 
L 84.363069 110.774808 
L 87.744887 113.820717 
L 91.126705 116.846937 
L 94.508522 119.851777 
L 97.89034 122.833921 
L 101.272157 125.792239 
L 104.653975 128.725092 
L 108.035793 131.631174 
L 111.417614 134.509054 
L 114.799432 137.357301 
L 118.18125 140.174723 
L 121.563067 142.959671 
L 124.944885 145.710777 
L 128.326706 148.426621 
L 131.708524 151.106258 
L 135.090342 153.747874 
L 138.472159 156.350319 
L 141.853977 158.912804 
L 145.235794 161.433567 
L 148.617614 163.911613 
L 151.999432 166.34624 
L 155.381249 168.73589 
L 158.763069 171.079878 
L 162.144887 173.377509 
L 165.526704 175.627466 
L 168.908523 177.829517 
L 172.290341 179.982779 
L 175.672159 182.086734 
L 179.053977 184.141082 
L 182.435795 186.145081 
L 185.817614 188.09895 
L 189.199431 190.001967 
L 192.58125 191.854547 
L 195.963069 193.656192 
L 199.344886 195.407297 
L 202.726704 197.10796 
L 206.108524 198.7585 
L 209.490341 200.359111 
L 212.872159 201.910197 
L 216.253976 203.412309 
L 219.635794 204.866151 
L 223.017612 206.272309 
L 226.399433 207.631179 
L 229.781251 208.943773 
L 233.163069 210.21086 
L 236.544886 211.433221 
L 239.926704 212.611941 
L 243.308521 213.747807 
L 246.690339 214.841784 
L 250.072157 215.894819 
L 253.453974 216.908071 
L 256.835792 217.882527 
L 260.217617 218.819165 
L 263.599435 219.719249 
L 266.981253 220.583702 
L 270.36307 221.413366 
L 273.744888 222.209787 
L 277.126706 222.973675 
L 280.508523 223.706232 
L 283.890341 224.408667 
L 287.272158 225.081654 
L 290.653976 225.726398 
L 294.035794 226.344172 
L 297.417611 226.935554 
L 300.799429 227.501729 
L 304.181246 228.043436 
L 307.563072 228.562031 
L 310.94489 229.057971 
L 314.326707 229.532548 
L 317.708517 229.986193 
L 321.090343 230.420043 
L 324.472152 230.834741 
L 327.853978 231.231169 
L 331.235803 231.610058 
L 334.617613 231.972077 
L 337.999439 232.318035 
L 341.381248 232.648657 
L 344.763074 232.964353 
L 348.144883 233.266039 
L 351.526709 233.554161 
L 354.908519 233.829464 
L 358.290344 234.092268 
L 361.672154 234.343388 
L 365.05398 234.583139 
L 368.435789 234.812026 
L 371.817615 235.030761 
L 375.199424 235.239511 
L 378.58125 235.438807 
" style="fill:none;stroke:#1f77b4;stroke-linecap:square;stroke-width:1.5;"/>
   </g>
   <g id="line2d_15">
    <path clip-path="url(#p8e596a81d8)" d="M 43.78125 113.371042 
L 47.163068 115.361682 
L 50.544885 117.366028 
L 53.926703 119.383429 
L 57.30852 121.413437 
L 60.690338 123.455307 
L 64.072156 125.508416 
L 67.453973 127.572111 
L 70.835799 129.645428 
L 74.217617 131.727724 
L 77.599434 133.817879 
L 80.981252 135.915043 
L 84.363069 138.018138 
L 87.744887 140.126116 
L 91.126705 142.237744 
L 94.508522 144.351829 
L 97.89034 146.467117 
L 101.272157 148.582167 
L 104.653975 150.695713 
L 108.035793 152.806138 
L 111.417614 154.912027 
L 114.799432 157.011778 
L 118.18125 159.103774 
L 121.563067 161.186365 
L 124.944885 163.257847 
L 128.326706 165.316601 
L 131.708524 167.360778 
L 135.090342 169.388702 
L 138.472159 171.398544 
L 141.853977 173.388697 
L 145.235794 175.357262 
L 148.617614 177.302654 
L 151.999432 179.223173 
L 155.381249 181.117149 
L 158.763069 182.983041 
L 162.144887 184.819265 
L 165.526704 186.624446 
L 168.908523 188.397195 
L 172.290341 190.136242 
L 175.672159 191.840383 
L 179.053977 193.508547 
L 182.435795 195.139737 
L 185.817614 196.733059 
L 189.199431 198.28787 
L 192.58125 199.803422 
L 195.963069 201.279348 
L 199.344886 202.715066 
L 202.726704 204.110433 
L 206.108524 205.465301 
L 209.490341 206.779531 
L 212.872159 208.053301 
L 216.253976 209.286696 
L 219.635794 210.479984 
L 223.017612 211.633574 
L 226.399433 212.747896 
L 229.781251 213.823454 
L 233.163069 214.860911 
L 236.544886 215.860899 
L 239.926704 216.824145 
L 243.308521 217.751417 
L 246.690339 218.643612 
L 250.072157 219.501515 
L 253.453974 220.326045 
L 256.835792 221.118115 
L 260.217617 221.878674 
L 263.599435 222.608661 
L 266.981253 223.309078 
L 270.36307 223.980848 
L 273.744888 224.624962 
L 277.126706 225.242364 
L 280.508523 225.83401 
L 283.890341 226.400821 
L 287.272158 226.943755 
L 290.653976 227.463699 
L 294.035794 227.961577 
L 297.417611 228.438209 
L 300.799429 228.894491 
L 304.181246 229.33121 
L 307.563072 229.749229 
L 310.94489 230.149272 
L 314.326707 230.532101 
L 317.708517 230.898469 
L 321.090343 231.249038 
L 324.472152 231.584592 
L 327.853978 231.905644 
L 331.235803 232.212928 
L 334.617613 232.507053 
L 337.999439 232.788538 
L 341.381248 233.05795 
L 344.763074 233.315873 
L 348.144883 233.562774 
L 351.526709 233.79917 
L 354.908519 234.025483 
L 358.290344 234.242251 
L 361.672154 234.449874 
L 365.05398 234.648748 
L 368.435789 234.839199 
L 371.817615 235.021735 
L 375.199424 235.196651 
L 378.58125 235.364278 
" style="fill:none;stroke:#ff7f0e;stroke-linecap:square;stroke-width:1.5;"/>
   </g>
   <g id="line2d_16">
    <path clip-path="url(#p8e596a81d8)" d="M 43.78125 174.263246 
L 47.163068 174.958101 
L 50.544885 175.661241 
L 53.926703 176.372582 
L 57.30852 177.092109 
L 60.690338 177.819786 
L 64.072156 178.555498 
L 67.453973 179.299152 
L 70.835799 180.05065 
L 74.217617 180.809862 
L 77.599434 181.57657 
L 80.981252 182.35064 
L 84.363069 183.131843 
L 87.744887 183.919951 
L 91.126705 184.714675 
L 94.508522 185.515728 
L 97.89034 186.322764 
L 101.272157 187.135456 
L 104.653975 187.953383 
L 108.035793 188.776153 
L 111.417614 189.603267 
L 114.799432 190.434244 
L 118.18125 191.268574 
L 121.563067 192.105678 
L 124.944885 192.944975 
L 128.326706 193.785869 
L 131.708524 194.62766 
L 135.090342 195.469709 
L 138.472159 196.311308 
L 141.853977 197.151725 
L 145.235794 197.990229 
L 148.617614 198.826052 
L 151.999432 199.658444 
L 155.381249 200.486608 
L 158.763069 201.309782 
L 162.144887 202.127202 
L 165.526704 202.938097 
L 168.908523 203.741719 
L 172.290341 204.537342 
L 175.672159 205.324222 
L 179.053977 206.101698 
L 182.435795 206.869139 
L 185.817614 207.625881 
L 189.199431 208.371368 
L 192.58125 209.105066 
L 195.963069 209.826495 
L 199.344886 210.535174 
L 202.726704 211.230748 
L 206.108524 211.912858 
L 209.490341 212.581202 
L 212.872159 213.235522 
L 216.253976 213.875641 
L 219.635794 214.501391 
L 223.017612 215.11268 
L 226.399433 215.709454 
L 229.781251 216.29167 
L 233.163069 216.859374 
L 236.544886 217.412639 
L 239.926704 217.951495 
L 243.308521 218.476146 
L 246.690339 218.986697 
L 250.072157 219.483344 
L 253.453974 219.966288 
L 256.835792 220.43576 
L 260.217617 220.891989 
L 263.599435 221.335247 
L 266.981253 221.76579 
L 270.36307 222.183896 
L 273.744888 222.589874 
L 277.126706 222.983969 
L 280.508523 223.366554 
L 283.890341 223.737882 
L 287.272158 224.098261 
L 290.653976 224.448008 
L 294.035794 224.787408 
L 297.417611 225.116788 
L 300.799429 225.436411 
L 304.181246 225.746589 
L 307.563072 226.047624 
L 310.94489 226.339786 
L 314.326707 226.623365 
L 317.708517 226.898604 
L 321.090343 227.165828 
L 324.472152 227.42522 
L 327.853978 227.677091 
L 331.235803 227.921687 
L 334.617613 228.159229 
L 337.999439 228.389933 
L 341.381248 228.614078 
L 344.763074 228.831819 
L 348.144883 229.043428 
L 351.526709 229.249074 
L 354.908519 229.448963 
L 358.290344 229.643305 
L 361.672154 229.832251 
L 365.05398 230.016016 
L 368.435789 230.194744 
L 371.817615 230.368629 
L 375.199424 230.537809 
L 378.58125 230.702463 
" style="fill:none;stroke:#2ca02c;stroke-linecap:square;stroke-width:1.5;"/>
   </g>
   <g id="line2d_17">
    <path clip-path="url(#p8e596a81d8)" d="M 43.78125 207.734596 
L 47.163068 207.888843 
L 50.544885 208.04365 
L 53.926703 208.198989 
L 57.30852 208.354859 
L 60.690338 208.511234 
L 64.072156 208.668084 
L 67.453973 208.8254 
L 70.835799 208.983165 
L 74.217617 209.14136 
L 77.599434 209.299952 
L 80.981252 209.458911 
L 84.363069 209.618244 
L 87.744887 209.777891 
L 91.126705 209.937851 
L 94.508522 210.098099 
L 97.89034 210.258607 
L 101.272157 210.419337 
L 104.653975 210.580269 
L 108.035793 210.741383 
L 111.417614 210.902636 
L 114.799432 211.064009 
L 118.18125 211.225476 
L 121.563067 211.386999 
L 124.944885 211.548556 
L 128.326706 211.710105 
L 131.708524 211.871636 
L 135.090342 212.033092 
L 138.472159 212.19446 
L 141.853977 212.355698 
L 145.235794 212.516778 
L 148.617614 212.677677 
L 151.999432 212.838352 
L 155.381249 212.998769 
L 158.763069 213.158898 
L 162.144887 213.31871 
L 165.526704 213.47817 
L 168.908523 213.637236 
L 172.290341 213.795903 
L 175.672159 213.954119 
L 179.053977 214.111847 
L 182.435795 214.269078 
L 185.817614 214.425759 
L 189.199431 214.581868 
L 192.58125 214.737385 
L 195.963069 214.892257 
L 199.344886 215.046486 
L 202.726704 215.200023 
L 206.108524 215.352845 
L 209.490341 215.504931 
L 212.872159 215.656244 
L 216.253976 215.806771 
L 219.635794 215.956488 
L 223.017612 216.105362 
L 226.399433 216.253372 
L 229.781251 216.400515 
L 233.163069 216.546747 
L 236.544886 216.692067 
L 239.926704 216.836444 
L 243.308521 216.979872 
L 246.690339 217.122312 
L 250.072157 217.263773 
L 253.453974 217.404225 
L 256.835792 217.543659 
L 260.217617 217.682071 
L 263.599435 217.819428 
L 266.981253 217.955736 
L 270.36307 218.090978 
L 273.744888 218.225139 
L 277.126706 218.358227 
L 280.508523 218.490216 
L 283.890341 218.621111 
L 287.272158 218.75091 
L 290.653976 218.879588 
L 294.035794 219.007155 
L 297.417611 219.133599 
L 300.799429 219.258929 
L 304.181246 219.383137 
L 307.563072 219.506214 
L 310.94489 219.62816 
L 314.326707 219.748987 
L 317.708517 219.868688 
L 321.090343 219.987262 
L 324.472152 220.104705 
L 327.853978 220.221028 
L 331.235803 220.336233 
L 334.617613 220.450329 
L 337.999439 220.563306 
L 341.381248 220.675178 
L 344.763074 220.785939 
L 348.144883 220.895616 
L 351.526709 221.004181 
L 354.908519 221.111674 
L 358.290344 221.218079 
L 361.672154 221.323407 
L 365.05398 221.427671 
L 368.435789 221.530869 
L 371.817615 221.63301 
L 375.199424 221.734116 
L 378.58125 221.834187 
" style="fill:none;stroke:#d62728;stroke-linecap:square;stroke-width:1.5;"/>
   </g>
   <g id="patch_3">
    <path d="M 43.78125 239.758125 
L 43.78125 22.318125 
" style="fill:none;stroke:#000000;stroke-linecap:square;stroke-linejoin:miter;stroke-width:0.8;"/>
   </g>
   <g id="patch_4">
    <path d="M 378.58125 239.758125 
L 378.58125 22.318125 
" style="fill:none;"/>
   </g>
   <g id="patch_5">
    <path d="M 43.78125 239.758125 
L 378.58125 239.758125 
" style="fill:none;stroke:#000000;stroke-linecap:square;stroke-linejoin:miter;stroke-width:0.8;"/>
   </g>
   <g id="patch_6">
    <path d="M 43.78125 22.318125 
L 378.58125 22.318125 
" style="fill:none;"/>
   </g>
   <g id="text_15">
    <!-- Tempered logistic loss -->
    <g transform="translate(145.005938 16.318125)scale(0.12 -0.12)">
     <defs>
      <path d="M -0.296875 72.90625 
L 61.375 72.90625 
L 61.375 64.59375 
L 35.5 64.59375 
L 35.5 0 
L 25.59375 0 
L 25.59375 64.59375 
L -0.296875 64.59375 
z
" id="DejaVuSans-84"/>
      <path d="M 56.203125 29.59375 
L 56.203125 25.203125 
L 14.890625 25.203125 
Q 15.484375 15.921875 20.484375 11.0625 
Q 25.484375 6.203125 34.421875 6.203125 
Q 39.59375 6.203125 44.453125 7.46875 
Q 49.3125 8.734375 54.109375 11.28125 
L 54.109375 2.78125 
Q 49.265625 0.734375 44.1875 -0.34375 
Q 39.109375 -1.421875 33.890625 -1.421875 
Q 20.796875 -1.421875 13.15625 6.1875 
Q 5.515625 13.8125 5.515625 26.8125 
Q 5.515625 40.234375 12.765625 48.109375 
Q 20.015625 56 32.328125 56 
Q 43.359375 56 49.78125 48.890625 
Q 56.203125 41.796875 56.203125 29.59375 
z
M 47.21875 32.234375 
Q 47.125 39.59375 43.09375 43.984375 
Q 39.0625 48.390625 32.421875 48.390625 
Q 24.90625 48.390625 20.390625 44.140625 
Q 15.875 39.890625 15.1875 32.171875 
z
" id="DejaVuSans-101"/>
      <path d="M 52 44.1875 
Q 55.375 50.25 60.0625 53.125 
Q 64.75 56 71.09375 56 
Q 79.640625 56 84.28125 50.015625 
Q 88.921875 44.046875 88.921875 33.015625 
L 88.921875 0 
L 79.890625 0 
L 79.890625 32.71875 
Q 79.890625 40.578125 77.09375 44.375 
Q 74.3125 48.1875 68.609375 48.1875 
Q 61.625 48.1875 57.5625 43.546875 
Q 53.515625 38.921875 53.515625 30.90625 
L 53.515625 0 
L 44.484375 0 
L 44.484375 32.71875 
Q 44.484375 40.625 41.703125 44.40625 
Q 38.921875 48.1875 33.109375 48.1875 
Q 26.21875 48.1875 22.15625 43.53125 
Q 18.109375 38.875 18.109375 30.90625 
L 18.109375 0 
L 9.078125 0 
L 9.078125 54.6875 
L 18.109375 54.6875 
L 18.109375 46.1875 
Q 21.1875 51.21875 25.484375 53.609375 
Q 29.78125 56 35.6875 56 
Q 41.65625 56 45.828125 52.96875 
Q 50 49.953125 52 44.1875 
z
" id="DejaVuSans-109"/>
      <path d="M 18.109375 8.203125 
L 18.109375 -20.796875 
L 9.078125 -20.796875 
L 9.078125 54.6875 
L 18.109375 54.6875 
L 18.109375 46.390625 
Q 20.953125 51.265625 25.265625 53.625 
Q 29.59375 56 35.59375 56 
Q 45.5625 56 51.78125 48.09375 
Q 58.015625 40.1875 58.015625 27.296875 
Q 58.015625 14.40625 51.78125 6.484375 
Q 45.5625 -1.421875 35.59375 -1.421875 
Q 29.59375 -1.421875 25.265625 0.953125 
Q 20.953125 3.328125 18.109375 8.203125 
z
M 48.6875 27.296875 
Q 48.6875 37.203125 44.609375 42.84375 
Q 40.53125 48.484375 33.40625 48.484375 
Q 26.265625 48.484375 22.1875 42.84375 
Q 18.109375 37.203125 18.109375 27.296875 
Q 18.109375 17.390625 22.1875 11.75 
Q 26.265625 6.109375 33.40625 6.109375 
Q 40.53125 6.109375 44.609375 11.75 
Q 48.6875 17.390625 48.6875 27.296875 
z
" id="DejaVuSans-112"/>
      <path d="M 41.109375 46.296875 
Q 39.59375 47.171875 37.8125 47.578125 
Q 36.03125 48 33.890625 48 
Q 26.265625 48 22.1875 43.046875 
Q 18.109375 38.09375 18.109375 28.8125 
L 18.109375 0 
L 9.078125 0 
L 9.078125 54.6875 
L 18.109375 54.6875 
L 18.109375 46.1875 
Q 20.953125 51.171875 25.484375 53.578125 
Q 30.03125 56 36.53125 56 
Q 37.453125 56 38.578125 55.875 
Q 39.703125 55.765625 41.0625 55.515625 
z
" id="DejaVuSans-114"/>
      <path d="M 45.40625 46.390625 
L 45.40625 75.984375 
L 54.390625 75.984375 
L 54.390625 0 
L 45.40625 0 
L 45.40625 8.203125 
Q 42.578125 3.328125 38.25 0.953125 
Q 33.9375 -1.421875 27.875 -1.421875 
Q 17.96875 -1.421875 11.734375 6.484375 
Q 5.515625 14.40625 5.515625 27.296875 
Q 5.515625 40.1875 11.734375 48.09375 
Q 17.96875 56 27.875 56 
Q 33.9375 56 38.25 53.625 
Q 42.578125 51.265625 45.40625 46.390625 
z
M 14.796875 27.296875 
Q 14.796875 17.390625 18.875 11.75 
Q 22.953125 6.109375 30.078125 6.109375 
Q 37.203125 6.109375 41.296875 11.75 
Q 45.40625 17.390625 45.40625 27.296875 
Q 45.40625 37.203125 41.296875 42.84375 
Q 37.203125 48.484375 30.078125 48.484375 
Q 22.953125 48.484375 18.875 42.84375 
Q 14.796875 37.203125 14.796875 27.296875 
z
" id="DejaVuSans-100"/>
      <path id="DejaVuSans-32"/>
      <path d="M 9.421875 75.984375 
L 18.40625 75.984375 
L 18.40625 0 
L 9.421875 0 
z
" id="DejaVuSans-108"/>
      <path d="M 45.40625 27.984375 
Q 45.40625 37.75 41.375 43.109375 
Q 37.359375 48.484375 30.078125 48.484375 
Q 22.859375 48.484375 18.828125 43.109375 
Q 14.796875 37.75 14.796875 27.984375 
Q 14.796875 18.265625 18.828125 12.890625 
Q 22.859375 7.515625 30.078125 7.515625 
Q 37.359375 7.515625 41.375 12.890625 
Q 45.40625 18.265625 45.40625 27.984375 
z
M 54.390625 6.78125 
Q 54.390625 -7.171875 48.1875 -13.984375 
Q 42 -20.796875 29.203125 -20.796875 
Q 24.46875 -20.796875 20.265625 -20.09375 
Q 16.0625 -19.390625 12.109375 -17.921875 
L 12.109375 -9.1875 
Q 16.0625 -11.328125 19.921875 -12.34375 
Q 23.78125 -13.375 27.78125 -13.375 
Q 36.625 -13.375 41.015625 -8.765625 
Q 45.40625 -4.15625 45.40625 5.171875 
L 45.40625 9.625 
Q 42.625 4.78125 38.28125 2.390625 
Q 33.9375 0 27.875 0 
Q 17.828125 0 11.671875 7.65625 
Q 5.515625 15.328125 5.515625 27.984375 
Q 5.515625 40.671875 11.671875 48.328125 
Q 17.828125 56 27.875 56 
Q 33.9375 56 38.28125 53.609375 
Q 42.625 51.21875 45.40625 46.390625 
L 45.40625 54.6875 
L 54.390625 54.6875 
z
" id="DejaVuSans-103"/>
     </defs>
     <use xlink:href="#DejaVuSans-84"/>
     <use x="44.083984" xlink:href="#DejaVuSans-101"/>
     <use x="105.607422" xlink:href="#DejaVuSans-109"/>
     <use x="203.019531" xlink:href="#DejaVuSans-112"/>
     <use x="266.496094" xlink:href="#DejaVuSans-101"/>
     <use x="328.019531" xlink:href="#DejaVuSans-114"/>
     <use x="366.882812" xlink:href="#DejaVuSans-101"/>
     <use x="428.40625" xlink:href="#DejaVuSans-100"/>
     <use x="491.882812" xlink:href="#DejaVuSans-32"/>
     <use x="523.669922" xlink:href="#DejaVuSans-108"/>
     <use x="551.453125" xlink:href="#DejaVuSans-111"/>
     <use x="612.634766" xlink:href="#DejaVuSans-103"/>
     <use x="676.111328" xlink:href="#DejaVuSans-105"/>
     <use x="703.894531" xlink:href="#DejaVuSans-115"/>
     <use x="755.994141" xlink:href="#DejaVuSans-116"/>
     <use x="795.203125" xlink:href="#DejaVuSans-105"/>
     <use x="822.986328" xlink:href="#DejaVuSans-99"/>
     <use x="877.966797" xlink:href="#DejaVuSans-32"/>
     <use x="909.753906" xlink:href="#DejaVuSans-108"/>
     <use x="937.537109" xlink:href="#DejaVuSans-111"/>
     <use x="998.71875" xlink:href="#DejaVuSans-115"/>
     <use x="1050.818359" xlink:href="#DejaVuSans-115"/>
    </g>
   </g>
   <g id="legend_1">
    <g id="patch_7">
     <path d="M 247.98125 103.70875 
L 371.58125 103.70875 
Q 373.58125 103.70875 373.58125 101.70875 
L 373.58125 29.318125 
Q 373.58125 27.318125 371.58125 27.318125 
L 247.98125 27.318125 
Q 245.98125 27.318125 245.98125 29.318125 
L 245.98125 101.70875 
Q 245.98125 103.70875 247.98125 103.70875 
z
" style="fill:#ffffff;opacity:0.8;stroke:#cccccc;stroke-linejoin:miter;"/>
    </g>
    <g id="line2d_18">
     <path d="M 249.98125 35.416562 
L 269.98125 35.416562 
" style="fill:none;stroke:#000000;stroke-dasharray:5.55,2.4;stroke-dashoffset:0;stroke-width:1.5;"/>
    </g>
    <g id="line2d_19"/>
    <g id="text_16">
     <!-- $t_1 = 1.00, t_2 = 1.00$ -->
     <g transform="translate(277.98125 38.916562)scale(0.1 -0.1)">
      <defs>
       <path d="M 42.28125 54.6875 
L 40.921875 47.703125 
L 23 47.703125 
L 17.1875 18.015625 
Q 16.890625 16.359375 16.75 15.234375 
Q 16.609375 14.109375 16.609375 13.484375 
Q 16.609375 10.359375 18.484375 8.9375 
Q 20.359375 7.515625 24.515625 7.515625 
L 33.59375 7.515625 
L 32.078125 0 
L 23.484375 0 
Q 15.484375 0 11.546875 3.125 
Q 7.625 6.25 7.625 12.59375 
Q 7.625 13.71875 7.765625 15.0625 
Q 7.90625 16.40625 8.203125 18.015625 
L 14.015625 47.703125 
L 6.390625 47.703125 
L 7.8125 54.6875 
L 15.28125 54.6875 
L 18.3125 70.21875 
L 27.296875 70.21875 
L 24.3125 54.6875 
z
" id="DejaVuSans-Oblique-116"/>
       <path d="M 10.59375 45.40625 
L 73.1875 45.40625 
L 73.1875 37.203125 
L 10.59375 37.203125 
z
M 10.59375 25.484375 
L 73.1875 25.484375 
L 73.1875 17.1875 
L 10.59375 17.1875 
z
" id="DejaVuSans-61"/>
       <path d="M 11.71875 12.40625 
L 22.015625 12.40625 
L 22.015625 4 
L 14.015625 -11.625 
L 7.71875 -11.625 
L 11.71875 4 
z
" id="DejaVuSans-44"/>
      </defs>
      <use transform="translate(0 0.78125)" xlink:href="#DejaVuSans-Oblique-116"/>
      <use transform="translate(39.208984 -15.625)scale(0.7)" xlink:href="#DejaVuSans-49"/>
      <use transform="translate(105.961914 0.78125)" xlink:href="#DejaVuSans-61"/>
      <use transform="translate(209.233398 0.78125)" xlink:href="#DejaVuSans-49"/>
      <use transform="translate(272.856445 0.78125)" xlink:href="#DejaVuSans-46"/>
      <use transform="translate(304.643555 0.78125)" xlink:href="#DejaVuSans-48"/>
      <use transform="translate(368.266602 0.78125)" xlink:href="#DejaVuSans-48"/>
      <use transform="translate(431.889648 0.78125)" xlink:href="#DejaVuSans-44"/>
      <use transform="translate(483.15918 0.78125)" xlink:href="#DejaVuSans-Oblique-116"/>
      <use transform="translate(522.368164 -15.625)scale(0.7)" xlink:href="#DejaVuSans-50"/>
      <use transform="translate(589.121094 0.78125)" xlink:href="#DejaVuSans-61"/>
      <use transform="translate(692.392578 0.78125)" xlink:href="#DejaVuSans-49"/>
      <use transform="translate(756.015625 0.78125)" xlink:href="#DejaVuSans-46"/>
      <use transform="translate(787.802734 0.78125)" xlink:href="#DejaVuSans-48"/>
      <use transform="translate(851.425781 0.78125)" xlink:href="#DejaVuSans-48"/>
     </g>
    </g>
    <g id="line2d_20">
     <path d="M 249.98125 50.094687 
L 269.98125 50.094687 
" style="fill:none;stroke:#1f77b4;stroke-linecap:square;stroke-width:1.5;"/>
    </g>
    <g id="line2d_21"/>
    <g id="text_17">
     <!-- $t_1 = 0.95, t_2 = 1.05$ -->
     <g transform="translate(277.98125 53.594687)scale(0.1 -0.1)">
      <defs>
       <path d="M 10.984375 1.515625 
L 10.984375 10.5 
Q 14.703125 8.734375 18.5 7.8125 
Q 22.3125 6.890625 25.984375 6.890625 
Q 35.75 6.890625 40.890625 13.453125 
Q 46.046875 20.015625 46.78125 33.40625 
Q 43.953125 29.203125 39.59375 26.953125 
Q 35.25 24.703125 29.984375 24.703125 
Q 19.046875 24.703125 12.671875 31.3125 
Q 6.296875 37.9375 6.296875 49.421875 
Q 6.296875 60.640625 12.9375 67.421875 
Q 19.578125 74.21875 30.609375 74.21875 
Q 43.265625 74.21875 49.921875 64.515625 
Q 56.59375 54.828125 56.59375 36.375 
Q 56.59375 19.140625 48.40625 8.859375 
Q 40.234375 -1.421875 26.421875 -1.421875 
Q 22.703125 -1.421875 18.890625 -0.6875 
Q 15.09375 0.046875 10.984375 1.515625 
z
M 30.609375 32.421875 
Q 37.25 32.421875 41.125 36.953125 
Q 45.015625 41.5 45.015625 49.421875 
Q 45.015625 57.28125 41.125 61.84375 
Q 37.25 66.40625 30.609375 66.40625 
Q 23.96875 66.40625 20.09375 61.84375 
Q 16.21875 57.28125 16.21875 49.421875 
Q 16.21875 41.5 20.09375 36.953125 
Q 23.96875 32.421875 30.609375 32.421875 
z
" id="DejaVuSans-57"/>
      </defs>
      <use transform="translate(0 0.78125)" xlink:href="#DejaVuSans-Oblique-116"/>
      <use transform="translate(39.208984 -15.625)scale(0.7)" xlink:href="#DejaVuSans-49"/>
      <use transform="translate(105.961914 0.78125)" xlink:href="#DejaVuSans-61"/>
      <use transform="translate(209.233398 0.78125)" xlink:href="#DejaVuSans-48"/>
      <use transform="translate(272.856445 0.78125)" xlink:href="#DejaVuSans-46"/>
      <use transform="translate(304.643555 0.78125)" xlink:href="#DejaVuSans-57"/>
      <use transform="translate(368.266602 0.78125)" xlink:href="#DejaVuSans-53"/>
      <use transform="translate(431.889648 0.78125)" xlink:href="#DejaVuSans-44"/>
      <use transform="translate(483.15918 0.78125)" xlink:href="#DejaVuSans-Oblique-116"/>
      <use transform="translate(522.368164 -15.625)scale(0.7)" xlink:href="#DejaVuSans-50"/>
      <use transform="translate(589.121094 0.78125)" xlink:href="#DejaVuSans-61"/>
      <use transform="translate(692.392578 0.78125)" xlink:href="#DejaVuSans-49"/>
      <use transform="translate(756.015625 0.78125)" xlink:href="#DejaVuSans-46"/>
      <use transform="translate(787.802734 0.78125)" xlink:href="#DejaVuSans-48"/>
      <use transform="translate(851.425781 0.78125)" xlink:href="#DejaVuSans-53"/>
     </g>
    </g>
    <g id="line2d_22">
     <path d="M 249.98125 64.772812 
L 269.98125 64.772812 
" style="fill:none;stroke:#ff7f0e;stroke-linecap:square;stroke-width:1.5;"/>
    </g>
    <g id="line2d_23"/>
    <g id="text_18">
     <!-- $t_1 = 0.80, t_2 = 1.20$ -->
     <g transform="translate(277.98125 68.272812)scale(0.1 -0.1)">
      <defs>
       <path d="M 31.78125 34.625 
Q 24.75 34.625 20.71875 30.859375 
Q 16.703125 27.09375 16.703125 20.515625 
Q 16.703125 13.921875 20.71875 10.15625 
Q 24.75 6.390625 31.78125 6.390625 
Q 38.8125 6.390625 42.859375 10.171875 
Q 46.921875 13.96875 46.921875 20.515625 
Q 46.921875 27.09375 42.890625 30.859375 
Q 38.875 34.625 31.78125 34.625 
z
M 21.921875 38.8125 
Q 15.578125 40.375 12.03125 44.71875 
Q 8.5 49.078125 8.5 55.328125 
Q 8.5 64.0625 14.71875 69.140625 
Q 20.953125 74.21875 31.78125 74.21875 
Q 42.671875 74.21875 48.875 69.140625 
Q 55.078125 64.0625 55.078125 55.328125 
Q 55.078125 49.078125 51.53125 44.71875 
Q 48 40.375 41.703125 38.8125 
Q 48.828125 37.15625 52.796875 32.3125 
Q 56.78125 27.484375 56.78125 20.515625 
Q 56.78125 9.90625 50.3125 4.234375 
Q 43.84375 -1.421875 31.78125 -1.421875 
Q 19.734375 -1.421875 13.25 4.234375 
Q 6.78125 9.90625 6.78125 20.515625 
Q 6.78125 27.484375 10.78125 32.3125 
Q 14.796875 37.15625 21.921875 38.8125 
z
M 18.3125 54.390625 
Q 18.3125 48.734375 21.84375 45.5625 
Q 25.390625 42.390625 31.78125 42.390625 
Q 38.140625 42.390625 41.71875 45.5625 
Q 45.3125 48.734375 45.3125 54.390625 
Q 45.3125 60.0625 41.71875 63.234375 
Q 38.140625 66.40625 31.78125 66.40625 
Q 25.390625 66.40625 21.84375 63.234375 
Q 18.3125 60.0625 18.3125 54.390625 
z
" id="DejaVuSans-56"/>
      </defs>
      <use transform="translate(0 0.78125)" xlink:href="#DejaVuSans-Oblique-116"/>
      <use transform="translate(39.208984 -15.625)scale(0.7)" xlink:href="#DejaVuSans-49"/>
      <use transform="translate(105.961914 0.78125)" xlink:href="#DejaVuSans-61"/>
      <use transform="translate(209.233398 0.78125)" xlink:href="#DejaVuSans-48"/>
      <use transform="translate(272.856445 0.78125)" xlink:href="#DejaVuSans-46"/>
      <use transform="translate(302.018555 0.78125)" xlink:href="#DejaVuSans-56"/>
      <use transform="translate(365.641602 0.78125)" xlink:href="#DejaVuSans-48"/>
      <use transform="translate(429.264648 0.78125)" xlink:href="#DejaVuSans-44"/>
      <use transform="translate(480.53418 0.78125)" xlink:href="#DejaVuSans-Oblique-116"/>
      <use transform="translate(519.743164 -15.625)scale(0.7)" xlink:href="#DejaVuSans-50"/>
      <use transform="translate(586.496094 0.78125)" xlink:href="#DejaVuSans-61"/>
      <use transform="translate(689.767578 0.78125)" xlink:href="#DejaVuSans-49"/>
      <use transform="translate(753.390625 0.78125)" xlink:href="#DejaVuSans-46"/>
      <use transform="translate(779.677734 0.78125)" xlink:href="#DejaVuSans-50"/>
      <use transform="translate(843.300781 0.78125)" xlink:href="#DejaVuSans-48"/>
     </g>
    </g>
    <g id="line2d_24">
     <path d="M 249.98125 79.450938 
L 269.98125 79.450938 
" style="fill:none;stroke:#2ca02c;stroke-linecap:square;stroke-width:1.5;"/>
    </g>
    <g id="line2d_25"/>
    <g id="text_19">
     <!-- $t_1 = 0.50, t_2 = 2.00$ -->
     <g transform="translate(277.98125 82.950938)scale(0.1 -0.1)">
      <use transform="translate(0 0.78125)" xlink:href="#DejaVuSans-Oblique-116"/>
      <use transform="translate(39.208984 -15.625)scale(0.7)" xlink:href="#DejaVuSans-49"/>
      <use transform="translate(105.961914 0.78125)" xlink:href="#DejaVuSans-61"/>
      <use transform="translate(209.233398 0.78125)" xlink:href="#DejaVuSans-48"/>
      <use transform="translate(272.856445 0.78125)" xlink:href="#DejaVuSans-46"/>
      <use transform="translate(304.643555 0.78125)" xlink:href="#DejaVuSans-53"/>
      <use transform="translate(368.266602 0.78125)" xlink:href="#DejaVuSans-48"/>
      <use transform="translate(431.889648 0.78125)" xlink:href="#DejaVuSans-44"/>
      <use transform="translate(483.15918 0.78125)" xlink:href="#DejaVuSans-Oblique-116"/>
      <use transform="translate(522.368164 -15.625)scale(0.7)" xlink:href="#DejaVuSans-50"/>
      <use transform="translate(589.121094 0.78125)" xlink:href="#DejaVuSans-61"/>
      <use transform="translate(692.392578 0.78125)" xlink:href="#DejaVuSans-50"/>
      <use transform="translate(756.015625 0.78125)" xlink:href="#DejaVuSans-46"/>
      <use transform="translate(787.802734 0.78125)" xlink:href="#DejaVuSans-48"/>
      <use transform="translate(851.425781 0.78125)" xlink:href="#DejaVuSans-48"/>
     </g>
    </g>
    <g id="line2d_26">
     <path d="M 249.98125 94.129063 
L 269.98125 94.129063 
" style="fill:none;stroke:#d62728;stroke-linecap:square;stroke-width:1.5;"/>
    </g>
    <g id="line2d_27"/>
    <g id="text_20">
     <!-- $t_1 = 0.20, t_2 = 4.00$ -->
     <g transform="translate(277.98125 97.629063)scale(0.1 -0.1)">
      <defs>
       <path d="M 37.796875 64.3125 
L 12.890625 25.390625 
L 37.796875 25.390625 
z
M 35.203125 72.90625 
L 47.609375 72.90625 
L 47.609375 25.390625 
L 58.015625 25.390625 
L 58.015625 17.1875 
L 47.609375 17.1875 
L 47.609375 0 
L 37.796875 0 
L 37.796875 17.1875 
L 4.890625 17.1875 
L 4.890625 26.703125 
z
" id="DejaVuSans-52"/>
      </defs>
      <use transform="translate(0 0.78125)" xlink:href="#DejaVuSans-Oblique-116"/>
      <use transform="translate(39.208984 -15.625)scale(0.7)" xlink:href="#DejaVuSans-49"/>
      <use transform="translate(105.961914 0.78125)" xlink:href="#DejaVuSans-61"/>
      <use transform="translate(209.233398 0.78125)" xlink:href="#DejaVuSans-48"/>
      <use transform="translate(272.856445 0.78125)" xlink:href="#DejaVuSans-46"/>
      <use transform="translate(299.143555 0.78125)" xlink:href="#DejaVuSans-50"/>
      <use transform="translate(362.766602 0.78125)" xlink:href="#DejaVuSans-48"/>
      <use transform="translate(426.389648 0.78125)" xlink:href="#DejaVuSans-44"/>
      <use transform="translate(477.65918 0.78125)" xlink:href="#DejaVuSans-Oblique-116"/>
      <use transform="translate(516.868164 -15.625)scale(0.7)" xlink:href="#DejaVuSans-50"/>
      <use transform="translate(583.621094 0.78125)" xlink:href="#DejaVuSans-61"/>
      <use transform="translate(686.892578 0.78125)" xlink:href="#DejaVuSans-52"/>
      <use transform="translate(750.515625 0.78125)" xlink:href="#DejaVuSans-46"/>
      <use transform="translate(782.302734 0.78125)" xlink:href="#DejaVuSans-48"/>
      <use transform="translate(845.925781 0.78125)" xlink:href="#DejaVuSans-48"/>
     </g>
    </g>
   </g>
  </g>
 </g>
 <defs>
  <clipPath id="p8e596a81d8">
   <rect height="217.44" width="334.8" x="43.78125" y="22.318125"/>
  </clipPath>
 </defs>
</svg>
